<svg width="85" height="151" viewBox="0 0 85 151" fill="none" xmlns="http://www.w3.org/2000/svg">
<g clip-path="url(#clip0_526_1281)">
<path d="M12.0218 52.805L9.65567 25.7014L16.4182 8.2705L28.0929 6.50546L40.7664 11.9197L42.1208 30.5672L32.9677 57.038L67.2652 73.8966L73.8167 130.54L59.5813 142.468L37.839 145.655L22.4576 141.006L12.0218 52.805Z" fill="#F8EDE2"/>
<path fill-rule="evenodd" clip-rule="evenodd" d="M27.8994 4.15106C28.8621 4.34301 30.361 4.75831 31.2409 5.08083C32.1243 5.38005 33.1378 5.93709 33.4879 6.27554C33.9855 6.75527 34.4255 6.91653 35.4812 7.05093C36.224 7.16226 37.706 7.40821 38.7685 7.63893C39.8309 7.86966 40.8999 8.19671 41.1472 8.37676C41.3738 8.55371 41.6036 8.8503 41.6582 9.04913C41.7334 9.25106 42.1829 9.77123 42.7047 10.2307C43.5217 10.9728 43.6518 11.2306 43.7492 12.27C43.7993 12.921 44.017 14.0022 44.208 14.6981C44.4026 15.3707 44.6656 16.1489 44.8164 16.4098C45.0151 16.7733 45.0071 17.2487 44.8226 18.1981C44.6416 19.1243 44.626 19.9322 44.7821 20.8612C45.0131 22.1351 44.9674 22.581 43.9626 28.722C43.3135 32.7714 42.767 35.5732 42.5146 36.1311C42.314 36.6254 41.9956 37.4833 41.7844 38.0474C41.5939 38.6146 41.2999 39.3094 41.1272 39.6171C40.9339 39.9218 40.5714 40.5109 40.3193 40.9259C40.0466 41.3379 39.5869 42.2937 39.3066 43.0382C39.0056 43.7795 38.4995 45.4672 38.1731 46.8005C37.7845 48.2675 37.3031 49.6491 36.9095 50.305C36.5641 50.9206 36.1352 51.9525 35.9513 52.6161C35.6529 53.763 35.6665 53.8127 36.1645 54.1494C36.4737 54.3388 37.591 54.6254 38.6674 54.7629C39.7403 54.9237 41.0849 55.1014 41.6626 55.188C42.2197 55.2715 44.1315 55.6057 45.8783 55.9151C47.6216 56.2479 49.8254 56.745 50.7742 57.0302C51.723 57.3154 52.9809 57.7899 53.5684 58.0924C54.1594 58.3717 54.9876 58.7579 55.3828 58.9363C55.7986 59.1178 56.4483 59.2867 56.8026 59.3159C57.1775 59.3483 57.7996 59.5607 58.1707 59.7593C58.5417 59.9579 59.2118 60.2728 59.6447 60.4807C60.0777 60.6886 60.6586 60.8948 60.9474 60.9381C61.2363 60.9814 61.8375 61.3336 62.3079 61.7139C62.7783 62.0943 63.9086 62.7165 64.8469 63.0716C65.7851 63.4267 66.785 63.934 67.1078 64.1731C67.4306 64.4121 68.2657 64.7517 68.9945 64.9563C69.7852 65.1701 70.4724 65.5114 70.7264 65.7878C70.939 66.058 71.2402 66.7228 71.3903 67.2696C71.5404 67.8164 71.5968 68.7066 71.513 69.266C71.4187 69.8953 71.1593 70.4999 70.7488 70.9865C70.4142 71.3891 70.0377 72.0715 69.8958 72.4554C69.6948 73.0925 69.7151 73.2386 70.0519 73.3844C70.2684 73.4883 70.4674 73.7088 70.4877 73.8548C70.5045 74.0242 70.5505 74.9843 70.593 75.9678C70.6354 76.9512 70.8724 78.6073 71.1212 79.6217C71.3494 80.633 71.6108 82.1259 71.6812 82.9229C71.7517 83.7199 71.9991 85.3061 72.2063 86.4572C72.4135 87.6084 72.687 89.8657 72.8037 91.4799C72.9169 93.1174 72.9857 94.6291 72.9542 94.8389C72.9193 95.072 73.0398 96.52 73.2118 98.0471C73.4043 99.5774 73.7013 102.1 73.8938 103.631C74.0864 105.161 74.4176 107.737 74.6203 109.34C74.8231 110.943 75.0807 112.602 75.1692 112.997C75.2784 113.395 75.3691 114.338 75.4088 115.059C75.4484 115.779 75.6794 117.053 75.9355 117.878C76.171 118.7 76.5639 119.879 76.7654 120.505C76.9669 121.131 77.1471 122.04 77.1392 122.515C77.1277 123.014 77.1813 123.642 77.246 123.913C77.3108 124.185 77.3476 124.644 77.3056 124.923C77.2602 125.226 77.3992 126.129 77.614 126.947C77.8082 127.763 77.9332 128.759 77.8773 129.132C77.8214 129.505 77.4062 130.586 76.9535 131.496C76.5008 132.405 75.8446 133.546 75.4789 134.015C75.1132 134.485 74.1789 135.37 73.4139 135.97C72.6488 136.57 71.3184 137.705 70.4429 138.48C69.5674 139.254 68.2579 140.249 67.5586 140.693C66.8593 141.136 66.0082 141.747 65.674 142.007C65.3362 142.29 64.8746 142.554 64.6372 142.59C64.3998 142.626 63.8281 142.922 63.3836 143.213C62.9186 143.501 61.6479 144.097 60.5531 144.504C59.4341 144.932 58.012 145.553 57.3885 145.913C56.748 146.246 55.8528 146.588 55.3814 146.637C54.9065 146.709 54.0977 146.897 53.5641 147.079C53.0546 147.241 52.3731 147.425 52.0531 147.449C51.7125 147.469 51.0313 147.51 50.4981 147.549C49.9683 147.565 48.6674 147.799 47.5764 148.041C46.4854 148.282 44.8888 148.52 44.0149 148.579C43.141 148.639 41.06 148.589 39.3884 148.482C37.7203 148.351 35.1756 148.017 33.7005 147.725C32.2219 147.455 30.1695 146.933 29.1246 146.586C28.0831 146.216 27.0724 145.921 26.9109 145.873C26.7458 145.848 26.0583 145.65 25.3949 145.431C24.7315 145.213 23.9411 144.856 23.6561 144.646C23.371 144.437 23.1584 144.167 23.1759 144.05C23.214 143.937 23.0908 143.632 22.9331 143.418C22.7753 143.204 22.4846 142.469 22.2659 141.817C21.8972 140.617 21.9007 140.594 21.0132 140.604C20.191 140.6 19.9952 140.499 18.9211 139.361C18.2656 138.667 17.6553 137.813 17.5461 137.415C17.4335 137.041 17.2688 135.324 17.1661 133.617C17.0428 131.906 16.8001 129.725 16.6268 128.77C16.4536 127.814 16.2785 126.167 16.2328 125.064C16.2043 123.988 16.2276 122.847 16.2765 122.521C16.3254 122.195 16.17 120.98 15.9285 119.776C15.6835 118.595 15.4329 116.889 15.3628 115.949C15.2927 115.009 15.2515 113.454 15.2503 112.477C15.2491 111.5 15.188 109.655 15.1014 108.403C15.0355 107.154 14.768 105.279 14.5192 104.265C14.2704 103.25 14.0138 101.162 13.9244 99.6474C13.8556 98.1356 13.7602 96.2386 13.7104 95.4447C13.6606 94.6508 13.4582 92.9046 13.2377 91.5608C13.0172 90.217 12.8186 88.3046 12.7762 87.3211C12.7337 86.3376 12.7475 84.8383 12.7701 83.9837C12.8133 83.1323 12.7064 81.734 12.5227 80.8485C12.312 79.7207 12.28 78.6673 12.4071 77.2565C12.5338 75.9886 12.513 74.5794 12.3264 73.4313C12.1808 72.4324 12.1028 70.4188 12.1267 68.9925C12.1799 66.808 12.0818 66.0545 11.6176 64.5073C11.3069 63.4837 10.505 60.6705 9.82932 58.2814C9.15368 55.8923 8.65642 53.7206 8.69484 53.4642C8.73327 53.2078 8.57498 51.7303 8.32052 50.1908C8.08668 48.6544 7.87031 47.0014 7.83352 46.5431C7.81736 46.0878 7.7368 45.2178 7.63844 44.6073C7.56071 43.9998 7.45001 42.7678 7.42119 41.8341C7.37174 40.8972 7.36104 39.5611 7.40394 38.8525C7.42621 38.1409 7.41169 36.971 7.34794 36.2703C7.26421 35.2807 7.35536 34.5317 7.76878 32.7586C8.22727 30.8255 8.26253 30.4495 8.05053 29.8934C7.91375 29.5393 7.64749 28.6414 7.5047 27.9051C7.34127 27.1656 7.24488 25.6974 7.29543 24.6564C7.37042 23.4522 7.54508 22.2868 7.82574 21.3995C8.06482 20.6488 8.52452 19.693 8.85912 19.2903C9.19371 18.8877 9.62863 18.2379 9.80832 17.8835C9.98801 17.5291 10.196 16.8454 10.283 16.4056C10.3494 15.9627 10.644 14.9821 10.9037 14.2346C11.2186 13.4001 11.6434 12.6773 12.0053 12.374C12.3224 12.0879 12.8884 11.2671 13.2513 10.5351C13.5936 9.79993 14.0564 8.9637 14.2498 8.65903C14.4637 8.35746 15.4256 7.42919 16.3976 6.57394C17.8763 5.29416 18.455 4.95192 19.825 4.53763C20.7303 4.26818 22.5438 3.99184 23.8202 3.92099C25.3718 3.84372 26.7545 3.90797 27.8994 4.15106ZM21.0128 8.57639C20.325 8.52096 19.52 8.54331 19.2137 8.61656C18.8143 8.74736 18.1969 9.48893 16.968 11.3543C15.6734 13.3766 15.1966 14.3061 14.8429 15.54C14.5828 16.4304 14.1847 17.5385 13.9428 18.0265C13.7009 18.5146 13.1551 19.4814 12.758 20.1607C12.2158 21.1041 11.9907 21.7615 11.8992 22.6534C11.7763 23.7551 11.8172 23.9042 12.2537 24.0888L12.7485 24.3059C11.6906 32.6315 11.4399 35.4299 11.4974 35.8913C11.5548 36.3527 11.556 37.33 11.5131 38.0385C11.4702 38.747 11.4882 39.8936 11.5589 40.5477C11.6262 41.2251 11.6753 42.3048 11.6635 42.9465C11.6482 43.6115 11.6364 44.2532 11.6396 44.3729C11.6221 44.4894 11.7891 45.2055 11.9972 45.9279C12.2089 46.6269 12.3314 47.2172 12.2695 47.2079C12.2076 47.1986 12.3333 47.9086 12.5582 48.8002C12.7832 49.6919 12.9082 50.6877 12.8523 51.0607C12.7999 51.4103 12.9694 52.5319 13.2388 53.5494C13.5082 54.5669 13.9732 55.8282 14.2988 56.3298C14.6038 56.8283 14.9872 57.6484 15.1065 58.1191C15.2773 58.6689 15.5172 59.0385 15.8197 59.1315C16.0638 59.192 16.6558 59.0424 17.138 58.781C17.6202 58.5196 18.2982 58.3591 18.7109 58.4209C19.2096 58.4719 19.6743 58.327 20.2187 57.932C20.6288 57.5883 21.2177 57.3191 21.517 57.2925C21.8163 57.2658 22.0678 57.1367 22.0852 57.0201C22.1027 56.9036 22.4541 56.6703 22.8604 56.4929C23.2426 56.3357 24.3333 56.237 25.2551 56.2798C26.6413 56.3207 27.013 56.2335 27.4301 55.8432C27.706 55.5509 28.3777 55.1511 28.9424 54.9021C29.5071 54.6531 30.0544 54.5206 30.1506 54.5827C30.2467 54.6448 30.467 54.5824 30.6153 54.4378C30.7635 54.2932 31.0607 53.7182 31.3131 53.1602C31.5448 52.5991 32.1286 51.5189 32.6258 50.7354C33.1229 49.952 33.8766 48.3014 34.3163 47.0566C34.7561 45.8118 35.3583 44.1861 35.6387 43.4417C35.9396 42.7004 36.507 41.3078 36.946 40.3489C37.361 39.4101 37.7486 38.372 37.7975 38.0457C37.8465 37.7193 38.0887 37.0884 38.3236 36.6469C38.6484 36.0283 39.0097 34.4619 39.6613 30.818C40.3968 26.6147 40.5267 25.4664 40.4967 23.5554C40.4926 22.3155 40.3521 20.5786 40.2303 19.7024C40.0879 18.8231 39.8845 17.5057 39.783 16.7755C39.6408 15.7533 39.4491 15.3433 39.0336 15.0188C38.7108 14.7798 38.2408 14.2565 37.9459 13.831C37.6475 13.4289 37.2359 12.9382 36.9921 12.7348C36.6556 12.4461 36.3462 12.3997 35.658 12.4872C34.9215 12.6152 34.5949 12.5424 33.9731 12.187C33.5471 11.9325 32.9285 11.6968 32.5777 11.6443C32.227 11.5917 31.5905 11.6155 31.1604 11.6702C30.5135 11.7639 30.2075 11.6942 29.7371 11.3138C29.4007 11.0251 29.0198 10.6105 28.9309 10.3589C28.777 9.97836 28.4609 9.83566 27.4499 9.68413C26.7277 9.5759 25.8202 9.2969 25.439 9.02528C25.0337 8.77388 24.5011 8.52723 24.25 8.51343C23.9783 8.49654 23.4278 8.50937 23.0183 8.56716C22.6089 8.62494 21.7007 8.63182 21.0128 8.57639ZM18.4402 71.4878C18.5417 72.218 18.6114 73.3009 18.586 73.8928C18.5606 74.4848 18.5849 75.8707 18.6271 76.9971C18.6898 78.1266 18.7764 79.3788 18.8443 79.7703C18.9122 80.1618 19.0206 82.3944 19.0979 84.6938C19.1958 86.9963 19.315 89.0161 19.4007 89.1481C19.4864 89.2801 19.52 89.6188 19.4816 89.8751C19.4432 90.1315 19.5374 91.0513 19.7005 91.9336C19.8636 92.816 19.9543 93.7591 19.9124 94.0388C19.867 94.3418 19.9276 94.9228 20.0367 95.3205C20.1459 95.7181 20.1954 96.655 20.1525 97.3635C20.1095 98.072 20.1349 99.0291 20.2406 99.4501C20.3427 99.8944 20.4611 100.794 20.5283 101.471C20.6222 102.534 20.7044 102.689 21.2304 102.84C21.7392 102.963 21.9458 102.851 22.4839 102.217C22.8426 101.794 23.5975 101.121 24.1867 100.709C25.0825 100.08 25.4542 99.9931 26.61 100.023C27.9308 100.078 27.9927 100.088 28.8779 101.078C29.3858 101.631 29.9181 102.021 30.073 101.972C30.2726 101.907 30.3701 101.397 30.4727 100.15C30.5931 98.6423 30.7144 98.2554 31.53 96.6141C32.038 95.6178 32.5085 94.449 32.5713 94.0295C32.6549 93.613 32.8692 93.1685 33.1276 92.9928C33.3618 92.8372 33.7342 92.4641 33.9688 92.1656C34.2034 91.8671 34.5732 91.0884 34.7983 90.431C35.1066 89.5001 35.3206 89.1986 35.8129 89.0102C36.1469 88.8934 36.9084 88.3164 37.522 87.7411C38.3563 86.9606 38.9109 86.6385 39.7162 86.4732C40.3218 86.3734 41.0656 86.0559 41.4034 85.7728C41.81 85.4525 42.6706 85.2001 44.0504 85.0018C45.1687 84.8596 46.1321 84.7657 46.187 84.8216C46.2419 84.8775 47.0155 85.0649 47.9198 85.2243C48.8242 85.3836 49.7694 85.6921 50.0303 85.9219C50.2947 86.1283 50.6452 86.3239 50.8102 86.3486C50.9753 86.3733 51.4667 86.6138 51.8891 86.8916C52.3081 87.1927 52.796 87.4565 52.954 87.5278C53.1156 87.5759 53.7787 87.9374 54.4176 88.3192C55.0566 88.7009 55.8225 89.2208 56.1418 89.4832C56.4646 89.7222 57.0344 90.2842 57.4289 90.7485C57.8269 91.1895 58.2316 91.7267 58.3239 91.9551C58.4128 92.2067 58.5115 92.6743 58.5416 93.0363C58.5476 93.4185 58.6708 93.7229 58.7739 93.7384C58.8771 93.7539 59.6621 93.4425 60.523 93.0473C61.8661 92.3906 62.1483 92.3376 62.8495 92.5857C63.2894 92.7469 63.822 92.9936 64.028 93.1674C64.2375 93.318 64.6835 93.8615 65.0126 94.3398C65.3417 94.8181 65.8457 95.5371 66.1476 95.916C66.4494 96.2948 66.7411 96.6007 66.8443 96.6162C66.9268 96.6285 66.9992 96.5679 67.0167 96.4513C67.0306 96.3581 67.0008 95.8532 66.9539 95.3218C66.907 94.7905 66.8372 93.7076 66.7874 92.9137C66.7376 92.1198 66.6641 91.2032 66.6717 90.8707C66.6587 90.5351 66.4648 89.5766 66.257 88.7113C66.0456 87.8694 65.7982 86.2832 65.7319 85.177C65.6415 84.0911 65.4454 82.5841 65.282 81.8447C65.1392 81.1083 64.9739 79.6775 64.9315 78.694C64.9096 77.7136 64.7507 76.5221 64.5866 76.0685C64.3438 75.4363 64.1791 75.2686 63.8109 75.3326C63.5322 75.3623 62.8818 75.4793 62.338 75.5885C61.7977 75.6744 60.6724 75.8632 59.85 76.0021C59.0275 76.141 57.6169 76.2632 56.7535 76.2529C55.8866 76.266 54.5966 76.2871 53.8947 76.3249C53.1929 76.3627 52.0886 76.4117 51.4486 76.4588C50.8122 76.4826 48.8207 76.3986 47.0459 76.2756C44.7932 76.1048 43.679 75.9378 43.394 75.7282C43.109 75.5187 41.9605 75.2989 40.2134 75.1324L37.4483 74.861C36.5054 73.5519 36.0524 73.055 35.8395 72.9278C35.6265 72.8005 34.9799 72.7513 34.3777 72.8278C33.7997 72.8842 33.0391 73.0324 32.7087 73.1258C32.3576 73.2162 31.7624 73.2462 31.3704 73.1874C30.9784 73.1287 30.4559 72.955 30.2258 72.8014C29.975 72.6446 29.611 72.3994 29.398 72.2722C29.185 72.1449 28.8723 71.9789 28.7143 71.9075C28.5562 71.8362 27.535 71.6117 26.4656 71.4275C25.3997 71.2201 24.4234 70.9785 24.3307 70.8931C24.2415 70.7844 23.4305 70.4245 22.5576 70.0554C21.6812 69.7095 20.7153 69.398 20.4023 69.3749C20.0722 69.3254 19.5773 69.1082 19.2545 68.8692C18.9317 68.6302 18.5848 68.4114 18.461 68.3928C18.296 68.3681 18.2334 68.6447 18.2286 69.2397C18.2378 69.7416 18.318 70.7545 18.4402 71.4878ZM46.8478 90.6879C46.5177 90.6384 45.8673 90.7554 45.3819 90.8972C44.8966 91.0389 43.7636 91.5602 42.8853 92.072C41.8485 92.6554 41.1283 93.2386 40.8486 93.6971C40.6171 94.1153 40.0479 94.8164 39.5997 95.2735C39.1515 95.7306 38.5474 96.6649 38.2569 97.3363C37.9664 98.0077 37.5822 99.0225 37.3917 99.5898C37.2012 100.157 36.7707 101.904 36.4058 103.493C36.041 105.083 35.6723 106.839 35.5644 107.419C35.477 108.001 35.3297 109.266 35.2483 110.231C35.1876 111.199 35.1571 112.529 35.1624 113.197C35.1919 113.845 35.3432 115.369 35.5193 116.587C35.6954 117.805 35.881 119.382 35.9412 120.106C36.0015 120.83 36.201 122.314 36.4187 123.395C36.6158 124.473 36.8744 125.703 37.0042 126.104C37.1134 126.502 37.1527 127.366 37.0755 128.021C37.0018 128.654 37.0138 129.418 37.0992 129.693C37.222 130.14 37.4213 130.218 39.488 130.504C40.7089 130.663 42.4836 130.786 43.4124 130.782C44.3412 130.778 45.4833 130.759 45.9546 130.71C46.426 130.662 47.0145 130.536 47.2625 130.43C47.5104 130.324 48.1307 129.845 48.6478 129.351C49.1649 128.856 50.096 127.852 50.7169 127.087C51.3585 126.325 52.1728 125.255 52.5559 124.669C52.9356 124.107 53.2604 123.488 53.2883 123.302C53.3163 123.115 53.7658 122.086 54.3084 121C54.9443 119.713 55.3599 118.488 55.5964 117.332C55.8016 116.386 55.9007 115.161 55.8537 114.63C55.79 113.929 55.8843 113.3 56.2031 112.299C56.4422 111.549 56.7193 110.685 56.8301 110.368C56.972 109.984 56.8943 109.376 56.5731 108.423C56.3066 107.668 56.099 106.659 56.1035 106.207C56.108 105.755 55.6961 103.858 55.1706 102.016C54.6657 100.177 54.2496 98.5893 54.2671 98.4727C54.2811 98.3795 54.0215 97.578 53.6933 96.6709C53.3652 95.7637 53.1056 94.9622 53.123 94.8457C53.137 94.7524 52.7774 94.0551 52.3458 93.2754C51.6469 92.0268 51.4238 91.8265 50.1833 91.2355C49.4342 90.8849 48.4959 90.5298 48.1245 90.4741C47.7738 90.4215 47.4538 90.4451 47.4398 90.5383C47.4224 90.6548 47.1608 90.711 46.8478 90.6879ZM63.3456 101.239C62.9257 101.367 62.027 101.733 61.3658 102.063C60.1846 102.625 60.157 102.668 60.1414 103.476C60.1369 103.928 60.2695 104.591 60.427 104.949C60.5844 105.306 60.7335 106.282 60.7522 107.142C60.7502 108 60.7825 108.91 60.7853 109.173C60.7882 109.436 60.8656 110.186 60.9535 110.866C61.0448 111.524 61.1873 112.403 61.2552 112.794C61.3437 113.189 61.5799 113.725 61.8201 113.951C62.2217 114.369 62.287 114.355 63.3692 113.469C63.993 112.966 64.9475 112.228 65.4919 111.833C66.25 111.279 66.6941 111.131 67.2305 111.211C67.6638 111.276 67.9701 111.203 67.9981 111.017C68.019 110.877 68.0144 109.923 67.9925 108.942C67.9501 107.959 67.8603 106.587 67.769 105.93C67.6604 105.246 67.5792 104.662 67.5897 104.592C67.6002 104.522 67.4965 103.244 67.3829 101.749C67.2155 99.7699 67.0727 99.0336 66.8422 99.0228C66.6737 99.0214 65.9743 99.4647 65.323 100.011C64.6509 100.553 63.7691 101.088 63.3456 101.239ZM25.0047 110.03C24.612 110.258 23.7959 110.636 23.1934 110.855C22.5668 111.095 21.9329 111.524 21.7637 111.809C21.4875 112.244 21.5068 112.819 21.8177 115.249C22.0204 116.852 22.3123 118.564 22.4729 119.041C22.6129 119.514 22.7487 120.297 22.7442 120.75C22.7604 121.205 22.872 122.008 22.9879 122.502L23.2059 123.44C25.7643 123.824 26.6242 123.857 26.762 123.783C26.8997 123.708 27.5788 123.119 28.2682 122.459C29.492 121.332 29.5437 121.268 29.4873 120.378C29.4334 119.893 29.356 119.143 29.2881 118.751C29.1995 118.357 29.0206 116.876 28.8931 115.475C28.745 114.07 28.6664 112.343 28.7299 111.637C28.7728 110.929 28.7367 110.185 28.6373 110.003C28.5173 109.818 28.2872 109.664 28.1187 109.663C27.9501 109.662 27.3172 109.662 26.7496 109.648C26.1614 109.632 25.3939 109.827 25.0047 110.03ZM67.3613 120.192C66.9826 120.326 66.5284 120.401 66.322 120.37C66.1364 120.342 65.7475 120.403 65.4583 120.502C65.1898 120.605 64.4111 121.156 63.7527 121.748C63.0772 122.314 62.0744 123.093 61.5128 123.462C60.6205 124.067 60.4653 124.258 60.2256 125.295C60.09 125.918 59.8337 126.642 59.7128 126.886C59.5712 127.127 59.208 128.002 58.8931 128.837C58.5226 129.901 58.0667 130.691 57.4391 131.359C56.9321 131.927 56.3353 132.671 56.1143 133.02C55.8934 133.368 55.1004 134.155 54.3389 134.731C53.5979 135.312 52.9364 135.784 52.8367 135.746C52.7542 135.733 52.3374 135.981 51.9136 136.275C51.5105 136.572 50.7667 136.889 50.2883 136.984C49.8135 137.056 49.0428 137.131 48.5749 137.156C48.1105 137.158 46.8274 137.133 45.7371 137.089C44.6467 137.044 42.7758 136.859 41.5791 136.68C40.3825 136.501 38.7217 136.18 37.8932 135.937C37.0613 135.717 36.2433 135.404 36.0957 135.262C35.9481 135.121 35.7047 134.775 35.5609 134.467C35.4136 134.183 34.9334 133.587 34.4976 133.116C34.0583 132.669 33.2626 131.644 32.7449 130.875C32.2273 130.107 31.7505 129.487 31.6886 129.478C31.6268 129.469 31.1855 129.879 30.7096 130.38C30.2062 130.924 29.4103 131.448 28.832 131.647C28.2777 131.827 27.4518 131.989 26.9874 131.991C26.5195 132.016 25.7624 132.141 25.3149 132.312C24.8501 132.457 24.4162 132.678 24.3575 132.788C24.2987 132.898 24.3177 133.616 24.3986 134.343C24.5001 135.073 24.5734 136.133 24.555 136.678C24.546 137.583 24.4733 137.786 23.8184 138.355C23.4254 138.725 23.0768 139.221 23.0248 139.428C22.9898 139.661 22.8517 139.879 22.7381 139.933C22.6244 139.988 22.4968 140.135 22.4794 140.252C22.4584 140.392 23.0428 140.575 23.8303 140.669C24.6143 140.786 26.4744 141.184 27.9803 141.553C29.4861 141.922 31.1329 142.335 31.6417 142.459C32.147 142.606 33.7424 142.941 35.2175 143.233C36.6925 143.526 37.9784 143.814 38.0746 143.876C38.1708 143.938 39.0307 143.972 39.9664 143.921C40.8987 143.894 42.0167 143.895 42.4293 143.957C42.8626 144.022 44.0634 143.892 45.1097 143.667C46.1766 143.446 47.553 143.271 48.1859 143.27C48.8189 143.27 50.4397 143.012 51.7545 142.685C53.0693 142.358 54.6974 141.911 55.3205 141.694C55.9642 141.481 56.6835 141.327 56.9105 141.361C57.1375 141.395 57.3406 141.306 57.3581 141.19C57.3755 141.073 57.6825 140.714 58.0409 140.434C58.4199 140.157 59.3189 139.648 60.0697 139.284C60.8169 138.943 62.1984 138.03 63.1117 137.286C64.0285 136.517 65.4205 135.534 66.1852 135.077C66.9499 134.62 67.8768 133.925 68.2457 133.575C68.6387 133.205 68.9527 132.799 68.9701 132.682C68.9876 132.566 69.2739 132.204 69.598 131.871C69.9187 131.561 70.326 130.955 70.5368 130.534C70.8168 129.932 70.8692 129.583 70.7638 129.019C70.6959 128.627 70.737 127.228 70.8501 125.91C71.0648 123.773 71.0277 123.458 70.6202 122.658C70.377 122.169 69.9492 121.223 69.6687 120.561C69.3881 119.9 69.073 119.328 68.9457 119.333C68.8012 119.311 68.5498 119.44 68.374 119.629C68.1775 119.814 67.74 120.058 67.3613 120.192Z" fill="#891910"/>
<path d="M30.2413 16.6808C29.2227 16.8618 28.118 17.0537 27.7533 17.0944C27.3886 17.135 26.3283 17.4528 25.3713 17.786C24.4348 18.1223 23.3988 18.4198 23.0994 18.4464C22.7347 18.4871 22.2385 18.8417 21.7211 19.4791C21.283 20.0092 20.5316 20.6592 20.0666 20.947C19.3501 21.3639 19.1637 21.622 18.7758 22.8031C18.5161 23.5506 17.9595 24.7302 17.5211 25.4033C17.0792 26.0997 16.3982 27.5467 15.983 28.6284C15.5121 29.9401 15.2172 31.0636 15.1533 31.912C15.1104 32.6205 15.0742 33.4253 15.0976 33.691C15.1211 33.9567 15.1988 34.5641 15.2356 35.0224C15.293 35.4838 15.2669 36.3617 15.1761 36.9677C15.0818 37.597 15.017 38.8742 15.0458 39.808C15.0711 40.765 15.0748 42.1478 15.0319 42.8564C15.0096 43.568 15.0108 44.5452 15.0683 45.0067C15.1257 45.4681 15.2202 46.2449 15.2983 46.7094C15.397 47.1769 15.4667 48.2598 15.4854 49.1206C15.4834 49.9782 15.6116 51.0937 15.7687 51.5939C15.9016 52.1143 15.9689 52.7916 15.92 53.1179C15.8711 53.4442 15.9282 54.0486 16.0373 54.4463C16.1738 54.9433 16.4002 55.2156 16.7166 55.263C17.0261 55.3094 17.6635 54.8568 18.7149 53.8943C19.8215 52.8447 20.3148 52.2275 20.4952 51.5873C20.6269 51.1304 20.7758 50.6999 20.8276 50.6362C20.8793 50.5724 20.7222 50.0723 20.4896 49.5131C20.2776 48.957 19.9907 48.0561 19.9025 47.5186C19.7937 46.978 19.6211 45.7367 19.5132 44.7672C19.4225 43.8242 19.3832 42.9604 19.4625 42.8531C19.5178 42.7661 19.4673 42.258 19.3172 41.7112C19.1468 41.0184 19.1596 39.9479 19.3565 38.0709C19.5077 36.6398 19.5694 35.243 19.5012 34.9944C19.4501 34.7723 19.4174 34.0048 19.4362 33.3165C19.4721 32.6546 19.4017 31.8576 19.3164 31.5826C19.1418 31.199 19.2253 30.7826 19.6203 29.5548C19.894 28.7141 20.3578 27.449 20.6277 26.7745C20.9182 26.1031 21.4849 24.9965 21.8785 24.3405C22.2928 23.6876 22.962 22.8823 23.3721 22.5387C23.7581 22.2152 24.8704 21.6908 25.7999 21.4011C26.7258 21.1348 27.748 20.9305 28.0781 20.98C28.3876 21.0263 28.8453 20.9281 29.1002 20.7757C29.3586 20.5999 29.7509 20.5157 29.9779 20.5497C30.2048 20.5838 30.7952 21.1489 31.272 21.7685C31.975 22.7079 32.2248 23.2935 32.5103 24.7662C32.8229 26.4813 32.8222 26.7671 32.358 29.7242C32.0505 31.7753 31.7517 33.0651 31.5308 33.4133C31.3375 33.718 31.1162 34.2091 31.0466 34.5323C30.9565 34.8524 30.5548 35.9838 30.1602 37.0686C29.7414 38.1736 29.3636 39.4277 29.2973 39.8706C29.2309 40.3134 28.7629 41.8877 28.2505 43.3361C27.7345 44.8078 27.3015 46.149 27.2805 46.2888C27.2561 46.452 27.4236 46.8823 27.6636 47.2519C27.9035 47.6215 28.1952 47.9273 28.2984 47.9428C28.4015 47.9583 28.4809 47.851 28.4365 47.7252C28.392 47.5994 28.4921 47.4952 28.6365 47.5168C28.7603 47.5354 29.4837 47.0718 30.2418 46.5182C30.9827 45.9381 31.7757 45.1513 31.9966 44.8032C32.2176 44.455 32.5357 43.74 32.6951 43.2396C32.8544 42.7392 33.492 40.7376 34.119 38.8059C34.7461 36.8741 35.4287 34.7124 35.6573 34.0317C35.8653 33.348 36.1564 32.3907 36.2917 31.9105C36.486 31.177 36.452 30.9812 35.9924 30.3881C35.5843 29.8741 35.4887 29.5261 35.5831 28.8968C35.6494 28.4539 35.8155 28.0499 35.9291 27.9954C36.0428 27.9409 36.3704 27.5849 36.6189 27.1932C36.864 26.8248 37.2132 26.043 37.3625 25.4696C37.5636 24.7848 37.6133 24.0773 37.5118 23.3471C37.4341 22.7397 37.2573 21.8076 37.1279 21.2639C36.9984 20.7202 36.7458 19.872 36.5852 19.3952C36.3903 18.8655 35.8622 18.1667 35.2099 17.5923C34.3894 16.8736 33.8981 16.6331 33.114 16.5156C32.5569 16.4321 31.2564 16.5232 30.2413 16.6808Z" fill="#891910"/>
</g>
<defs>
<clipPath id="clip0_526_1281">
<rect width="84" height="150" fill="white" transform="translate(0.753906 0.96875)"/>
</clipPath>
</defs>
</svg>
