<svg version="1.2" xmlns="http://www.w3.org/2000/svg" viewBox="0 0 1700 1654" width="1700" height="1654">
	<title>thumbsUp</title>
	<style>
		.s0 { fill: #FAE6D0 } 
		.s1 { fill: #971B11 } 
	</style>
	<g id="Background">
		<path id="Path 0" class="s0" d="m1655 0.8c0 0.4 0.7 3 1.6 5.7 0.9 2.8 5.8 10.8 10.9 18 5.1 7.2 12.6 18.4 16.7 25 4.2 6.6 9.2 15 11.2 18.8 2 3.7 3.8 6.7 4.1 6.7 0.3 0 0.5-16.9 0.5-37.5v-37.5c-34.9 0-45 0.3-45 0.7z"/>
		<path id="Path 1" class="s1" d="m491.5 94.1c-1.6 0.6-6.1 1.4-10 2-3.9 0.5-10.1 2.1-14 3.5-3.9 1.4-7.9 3.1-9 3.6-1.1 0.6-4.9 3.5-8.5 6.3-3.6 2.9-10.6 9.6-15.6 15.1-5 5.4-10.5 12.2-12.1 14.9-1.6 2.8-5.8 8.6-9.2 13-3.5 4.4-7.9 10.9-9.9 14.5-1.9 3.6-5.4 9.7-7.8 13.5-2.4 3.9-5.7 8.8-7.3 11-1.7 2.2-3.9 6.6-5.1 9.8-1.2 3.4-2.4 10.8-3.1 18.5-0.6 7.6-0.8 22-0.5 35.7 0.4 12.6 0.7 24.6 0.7 26.5 0 1.9-0.2 16.8-0.4 33-0.2 16.2-0.7 30.5-1 31.8-0.7 2.2-0.7 2.2-5-1.1-2.3-1.8-10.3-7.3-17.7-12.1-7.4-4.8-15.1-10.3-17-12.1-1.9-1.8-8-6.3-13.5-10-5.5-3.8-12.5-8.9-15.5-11.4-3-2.5-14-12.7-24.4-22.6-10.5-9.9-28-26.8-39.1-37.5-11-10.7-26.8-26.6-35-35.3-8.3-8.7-23.3-23.3-33.4-32.5-10.1-9.2-20.4-18.2-23-20-2.5-1.8-6.4-3.8-8.6-4.3-2.2-0.6-6.3-2.3-9-3.7-3.5-1.8-6.6-2.6-10.5-2.6-4.4-0.1-6.2 0.5-9 2.5-1.9 1.4-6.7 4.3-10.5 6.4-4.5 2.4-9.2 6.2-13 10.3-3.3 3.6-8.3 8.8-11.1 11.6-2.9 2.8-8.3 7.3-12 10-3.8 2.7-10.7 6.5-15.4 8.4-7.1 3-9.6 4.7-15.5 10.6-3.9 3.9-8.8 9.6-10.9 12.6-2.2 3-4.5 7.5-5.3 10-0.7 2.5-1.3 6.3-1.3 8.5 0 2.2 1.2 6.7 2.6 10 1.5 3.3 4.3 9.6 6.5 14 2.1 4.4 6.7 11.6 10.2 16 3.6 4.4 14.5 16.3 24.2 26.5 9.8 10.2 21.7 22.8 26.4 28.1 4.7 5.2 12.6 14.1 17.6 19.8 5 5.6 10.8 13 13 16.6 2.2 3.5 7.6 11 12 16.7 4.4 5.7 12.2 15.2 17.3 21.3 5.1 6.1 13.1 15.3 17.7 20.5 4.5 5.2 9.9 11.5 11.9 14 1.9 2.5 5.2 6.9 7.3 9.9 2.1 3 4.7 6 5.8 6.8 2 1.4 1.9 1.5-1 4-2.2 1.9-3.6 2.3-5.5 1.8-1.4-0.3-6.6-1-11.5-1.5-4.9-0.4-10.1-1.1-11.5-1.4-1.9-0.5-4.3 0.4-10 3.7-4.1 2.5-9.6 6.3-12.3 8.6-2.6 2.3-5 5.1-5.3 6.3-0.3 1.3-1.8 5.2-3.3 8.8-1.6 3.6-4.5 10.6-6.6 15.5-2 4.9-4.7 11.2-6 14-1.3 2.7-2.6 7.2-3 10-0.4 2.7-1.4 6.6-2.2 8.5-1.1 2.5-1.5 7.8-1.6 18-0.1 13.9 0 14.8 3 23 1.8 4.7 4.1 11 5.3 14 1.2 3 2.6 7.1 3.2 9 0.5 1.9 1.6 4.2 2.3 5 0.7 0.8 4.1 6.9 7.6 13.5 3.5 6.6 8.2 14.2 10.4 17 2.3 2.7 5.2 6.8 6.5 9 1.4 2.2 5.2 7.4 8.6 11.5 3.3 4.1 7 9.1 8.2 11l2.1 3.5c-4.5 5.4-6.6 9.5-7.7 12.5-1 3-2.9 7.4-4.1 9.7-1.1 2.4-2.1 5.1-2.1 6 0 1 0.8 3.3 1.7 5.1 1 1.8 5 6.9 8.8 11.4 3.8 4.5 9.1 10.4 11.6 13.2 2.5 2.8 5.9 7.6 7.5 10.6 1.6 3.1 6.5 9.2 11.3 14 4.6 4.7 9.4 10.1 10.6 12 1.2 1.9 4 5.3 6.1 7.5 2.2 2.2 7.3 7 11.4 10.6 4.1 3.6 10 8.3 13 10.3 3 2 5.9 3.6 6.5 3.6 0.6 0 3.2 0.9 6 2.1 2.7 1.1 5.9 1.8 7 1.5 1.1-0.3 5.5-4 9.7-8.3 4.2-4.3 9.5-10.3 11.7-13.3 2.2-3 5.7-8 7.7-11 2-3 5.5-10.2 7.6-16 2.2-5.8 4.3-11.1 4.6-11.8 0.5-0.9 3.6 2 9.2 8.5 4.7 5.3 13.7 15.6 20.1 22.8 6.4 7.1 16.6 17.7 22.6 23.5 6 5.8 14.4 13.4 18.7 17 4.3 3.6 11 8.9 15 11.8 3.9 2.8 10.5 7.7 14.6 10.7 4.1 3 10.9 8.3 15.1 11.7 4.2 3.5 11.2 8.3 15.5 10.7 4.4 2.4 12.8 7.5 18.9 11.3 6.1 3.8 15.5 9.8 21 13.3 5.5 3.5 13.7 9.7 18.3 13.7 4.6 4 10.4 10 13.1 13.3 2.6 3.3 10.4 11.4 17.4 18 7 6.6 16.7 17 21.6 23 4.9 6 13.6 16.9 19.2 24 5.7 7.1 13.5 16.6 17.5 21 3.9 4.4 9.7 11.8 12.9 16.5 3.2 4.7 12 16.6 19.4 26.5 7.4 9.9 15 20.5 16.8 23.5 1.9 3 6.7 9.8 10.8 15 4.1 5.2 11.5 15.1 16.4 22 5 6.9 11.7 16.5 14.8 21.3 3.2 4.9 9.2 13.7 13.3 19.7 4.1 6 13.4 19.2 20.6 29.2 7.1 10.1 16.2 22.8 20.1 28.3 3.9 5.5 12.5 17.9 19.1 27.5 6.6 9.6 15 20.9 18.7 25 3.7 4.1 8.6 9.9 10.9 12.9 2.2 3 7.9 11.3 12.5 18.5 4.6 7.2 12.9 20.8 18.4 30.1 5.5 9.3 10.9 18.4 12.1 20.1 1.2 1.7 4 5.8 6.2 9 2.3 3.3 7.4 11.7 11.4 18.9 3.9 7.2 8.5 14.6 10.1 16.5 1.6 1.9 5.4 7.5 8.5 12.5 3.1 5 7.6 11.7 9.9 15 2.3 3.3 6.1 9.2 8.5 13 2.3 3.8 6.4 9.5 9 12.5 2.5 3 9.3 11.7 15.1 19.3 5.7 7.7 13.8 18.5 17.9 24.2 4.1 5.7 10.6 13.8 14.3 18.1 3.8 4.4 8.8 11.3 11.3 15.4 2.4 4.1 6.6 11.1 9.4 15.5 2.7 4.4 6.8 12.3 9.1 17.5 2.2 5.2 6.5 14.2 9.4 20 2.9 5.8 6.4 14.3 7.9 19 1.8 6.2 3.8 10.1 7.1 14.2l4.5 5.8c8.9-0.1 12.2-0.4 13.1-0.8 0.9-0.4 3.3-2.2 5.3-4l3.6-3.2c-3.1-8.1-5.8-13.4-8-17-2.1-3.6-5.1-9.9-6.6-14-1.4-4.1-4.2-9.8-6.2-12.5-1.9-2.8-5.3-9.3-7.5-14.5-2.1-5.2-5.2-11.8-6.8-14.5-1.5-2.8-5.5-7.9-8.9-11.5-4.4-4.8-6.4-7.9-7.6-12-1.4-4.5-3.3-7.2-10.2-14.5-4.7-5-10.3-11.4-12.4-14.3-2.1-2.8-3.8-5.4-3.8-5.7 0-0.3-1.9-3.3-4.2-6.8-2.3-3.4-5.4-7.5-6.9-9.2-1.5-1.7-6.1-7.5-10.3-13-4.2-5.5-12.4-17-18.2-25.5-5.7-8.5-11.7-17.3-13.3-19.5-1.6-2.2-6.2-9.2-10.4-15.5-4.1-6.3-8.7-14-10.2-17-1.5-3-5.9-10.5-9.8-16.5-3.9-6-8.5-12.8-10.3-15-1.8-2.2-5.4-8-8.1-13-2.7-5-7.5-13-10.6-18-3.1-5-7.2-11.7-9.1-15-1.9-3.3-6.1-9.4-9.3-13.6-3.2-4.2-8.9-11.2-12.7-15.5-3.7-4.4-9.6-11.9-12.9-16.9-3.3-5-12.4-17.8-20.2-28.5-7.8-10.7-17.3-24.2-21-30-3.8-5.8-10.2-15-14.3-20.5-4.1-5.5-13.5-19-20.8-30-7.4-11-18.2-27-24.2-35.5-5.9-8.5-13.7-19.4-17.2-24.1-3.6-4.8-8.3-11.1-10.4-14-2.2-3-7.6-10.4-12-16.4-4.4-6-10.5-14.7-13.6-19.2-3-4.5-8.9-12.3-13-17.3-4.1-5.1-11.1-13.3-15.6-18.4-4.4-5-10.5-12.2-13.6-16.1-3-3.9-10.4-12.2-16.3-18.5-6-6.3-15.1-16.7-20.4-23-5.2-6.3-14-16-19.5-21.5-5.6-5.5-12.9-12.3-16.3-15-3.5-2.8-9.5-6.7-13.5-8.7-4-2.1-9.1-4.4-11.3-5-2.2-0.7-7.4-3.6-11.5-6.5-4.1-2.9-12-7.9-17.5-11.2-5.5-3.2-12.9-7.7-16.5-10-3.6-2.2-10.9-7.7-16.4-12.3-5.4-4.6-12.2-9.9-15-11.8-2.8-2-7.8-5.8-11.1-8.5-3.4-2.8-9.7-7.9-14-11.5-4.4-3.6-13.1-11.3-19.5-17.1-6.3-5.9-15.2-14.9-19.7-20-4.5-5.2-10.4-12.3-13.2-15.9-2.8-3.6-6.5-8.1-8.3-10-1.7-1.9-6.4-7.1-10.3-11.5-4-4.4-7.7-9-8.4-10.3-0.6-1.2-1.1-3-1.1-4 0-0.9-1.8-4.4-4-7.7-2.2-3.3-5.7-7.1-7.8-8.5-2-1.4-6-4.2-8.7-6.2-2.8-2-6-5-7.3-6.7-1.5-2.2-2.8-3-4.2-2.6-1.2 0.3-2 0-2-0.8 0-0.6 0.7-3.2 1.5-5.7 0.9-2.5 3-7.4 4.7-11 2.9-5.9 3.2-7.5 3.6-18.5 0.4-12 0.4-12-2.6-16.5-1.7-2.5-7.3-8.8-12.5-14-5.3-5.2-10.9-11-12.6-12.8-1.7-1.7-3.1-3.5-3.1-4 0.1-0.4-2.2-3.6-5-7.2-2.7-3.6-5.4-7-5.9-7.5-0.5-0.5-2.5-2.2-4.5-3.8-2-1.5-4.3-4.2-5.2-6-1.5-3.1-1.5-3.4 1.5-9.7 1.7-3.6 3.1-7.3 3.1-8.3 0-0.9 0.8-3.5 1.7-5.7 1-2.2 1.5-4.2 1-4.5-0.4-0.3-2.2 0.3-4 1.4-1.7 1-4.3 2.2-5.7 2.6-1.4 0.4-3.8 1.4-5.5 2.2-2.8 1.4-3.6 1.2-13.3-2.1-5.6-2-10.8-3.6-11.5-3.6-0.6 0-3.3 2-6 4.5-2.6 2.5-4.7 5.3-4.7 6.2 0 1 2.6 4.4 5.8 7.5 3.5 3.5 6.6 5.8 7.9 5.8 1.3 0 3.6 0.9 5.3 2 1.7 1.1 3.7 3.4 4.5 5 0.8 1.6 4.8 6.7 8.8 11.2 4 4.6 9.9 11.4 13 15.3 3.1 3.9 8.5 10.2 12 14.2 3.4 3.9 9.4 10.7 13.2 15 3.8 4.4 8.1 9.3 9.4 10.9l2.5 2.9c-3.6 9.3-4.9 13.4-5.3 15-0.4 1.6-1.6 4.6-2.6 6.5-1.6 3.3-1.8 3.4-2.7 1.5-0.8-1.5-0.6-3.4 0.8-7.2 1.9-5.2 1.9-5.3-0.1-7.7-1.1-1.4-7.1-8.1-13.3-15-6.1-6.9-11.2-13.2-11.2-13.9 0-0.6-1.2-2.4-2.7-3.9-1.6-1.5-4.6-3.4-6.8-4.3-3.3-1.4-6-1.5-15-1-9.2 0.6-11.6 1.1-14.5 3.1-1.9 1.3-6 3.3-9 4.5-3 1.1-7.3 3.5-9.5 5.3-2.2 1.8-4.6 3.5-5.3 3.9-0.7 0.4-2.3-0.6-4-2.4-1.5-1.7-4.6-6.1-6.9-9.8-2.4-3.6-5.5-8.8-6.9-11.6-1.5-2.8-4-6.9-5.5-9.3-1.6-2.3-2.7-4.7-2.4-5.2 0.3-0.5-0.8-4-2.4-7.8-1.6-3.7-4.1-9.6-5.6-13.2-2.5-6.1-2.7-7.3-2.3-18.5 0.4-10.3 0.8-12.9 3.2-18.5 1.5-3.6 3.1-7.9 3.5-9.5 0.5-1.6 1.7-5.3 2.8-8 1-2.8 4.1-8.8 6.8-13.4 3.3-5.5 6.6-9.6 9.5-11.9l4.5-3.4c13.2 1 20.2 1.6 24 1.9 6.3 0.5 7.2 0.4 9.2-1.6 1.3-1.1 5.1-3.5 8.5-5.2l6.3-3.2c5.8 3.3 8.5 4.2 9.7 4.1 1.6-0.2 2.8-1.8 4.7-6.3 2-4.8 2.5-8.2 2.9-17 0.2-6.1 0-12.6-0.5-14.5-0.6-2.3-1.6-3.6-2.9-3.8-1.1-0.2-3.2 1-5.1 3-2.9 3-3.4 3.2-4.9 1.8-1-0.8-3.2-3.7-5.1-6.5-1.8-2.7-5.7-7.9-8.6-11.5-2.8-3.6-6.5-7.9-8.2-9.5-1.7-1.7-5.9-6.6-9.5-11-3.6-4.3-8.4-10-10.7-12.5-2.4-2.5-6.5-7.4-9.1-11-2.7-3.6-5.9-8.3-7-10.5-2-3.8-2.1-4.3-0.7-9.5 0.8-3 1.5-9 1.5-13.3 0-4.2-0.3-7.9-0.8-8.1-0.4-0.3-2.3 1-4.3 2.7-1.9 1.8-4.7 5.1-6.2 7.5-1.5 2.3-2.9 4.2-3.2 4.2-0.3 0-1.9-2.4-3.6-5.3-1.8-2.8-6.4-8.6-10.4-12.7-3.9-4.1-9.8-10.9-13.1-15-3.2-4.1-12.7-14.6-21.1-23.3l-15.3-15.7c2.3-6.6 3.4-11.4 3.9-15 0.5-3.6 0.7-6.6 0.5-6.8-0.2-0.1-3.4 2.5-7.2 5.7l-6.7 6c-4.4-4.2-7.7-8.1-10.2-11.4-2.5-3.3-6.8-10.5-9.4-16-2.7-5.5-5.2-11.6-5.6-13.5-0.4-2.4-0.2-4.3 0.9-6 0.8-1.4 4.7-4.1 8.9-6.2 4.1-2.1 8.5-4 9.9-4.2 1.4-0.3 4.4-2.1 6.7-4.1 2.4-1.9 4.8-3.5 5.3-3.5 0.5 0 1.7 1.7 2.6 3.7 0.9 2.1 4.5 8.3 8.2 13.8 3.6 5.5 8.4 12.2 10.6 15 2.3 2.7 7 8.1 10.5 12 3.4 3.8 10 12.6 14.6 19.5 6.6 10.1 11.7 16.1 26.6 31.4 10.1 10.5 21.3 21.7 24.9 25 3.6 3.3 10.1 9.9 14.4 14.6 4.4 4.7 15.6 16 25 25.3 15.6 15.2 17.6 16.9 22.6 18.3 4.1 1.2 6.7 1.4 10 0.8 3.5-0.7 4.9-1.6 6.5-4.2 1.1-1.8 4.2-6.8 7-11 4.4-6.9 4.9-8.3 5-13.4 0-4.1-0.5-6.3-2-8.3-1.1-1.5-3.2-3.4-4.7-4.3-2.4-1.5-3.2-1.5-6-0.3-1.8 0.7-4.6 1.6-6.2 2-1.6 0.3-4.3 2.3-6 4.3-1.7 2.1-3.7 3.7-4.4 3.8-0.6 0-4.5-2.2-8.5-4.9q-7.2-4.9-10.8-10.3c-2-2.9-5.8-7.8-8.6-10.8-2.7-3-7.6-7.3-10.7-9.5-3.1-2.2-5.6-4.7-5.6-5.5 0-0.8 1.2-5.8 2.5-11 1.4-5.2 2.5-10.5 2.5-11.7 0-1.3-0.6-2.3-1.3-2.3-0.6 0-3.9 2.9-7.2 6.5-3.3 3.5-6.7 6.5-7.5 6.5-0.8 0-9.2-7.7-18.5-17.2-9.4-9.5-18.4-19.3-20.1-21.8-1.7-2.5-4.2-5.4-5.6-6.5-1.4-1.1-4.8-6.3-7.5-11.5-4.5-8.6-4.9-9.9-4.2-13.5 0.4-2.2 0.8-5.2 0.8-6.7 0.1-1.6-0.4-2.8-1.2-2.8-0.6 0-2.9 1.1-5 2.5-2.3 1.5-4.3 2.2-5.2 1.8-0.8-0.5-3.3-3-5.5-5.8-2.3-2.7-6.4-9.5-9.2-15-4.3-8.8-4.9-10.5-4.3-14 0.4-2.2 1.3-5.1 2-6.5 0.7-1.4 3-4 5.1-5.9 2.2-1.9 8.1-5.4 13.1-7.8l9.3-4.3c14.3 5.5 19.6 7.7 20.9 8.3 1.3 0.7 8 6.1 14.9 12.2 6.9 6.1 16.4 14.6 21.1 19 4.7 4.4 14.2 14.1 21.1 21.4 6.9 7.4 15.4 15.9 18.9 19 3.5 3.1 15.7 14.8 27 26.1 11.3 11.3 22.2 21.6 24.1 23 1.9 1.4 9.1 7.8 16 14.4 6.9 6.5 18.4 16.2 25.5 21.5 7.1 5.3 15 11.2 17.5 12.9 2.5 1.8 7.6 5.7 11.5 8.7 3.9 3.1 11.1 8 16 11 6.3 3.7 10.7 7.3 14.7 11.9l5.8 6.6c-1 8.1-1.9 12.8-2.7 15.5-0.7 2.8-1.8 7.9-2.5 11.5-0.6 3.6-1.7 8.3-2.5 10.5-0.8 2.2-1.9 8.1-2.3 13-0.5 4.9-1.7 11.3-2.8 14-1.1 2.8-2.3 8.1-2.7 12-0.4 3.9-1.8 10.4-3.1 14.5-1.3 4.1-2.4 9.2-2.4 11.3 0 2.8 0.6 4.1 2.2 5.2 1.3 0.8 4.3 2.1 6.8 3 2.5 0.9 6.5 1.6 8.9 1.6 2.4 0.1 4.7-0.3 5.2-0.8 0.5-0.4 1.3-3 1.9-5.8 0.6-2.8 1.5-7.9 2.1-11.5 0.6-3.6 1.9-10.3 3-15 1-4.7 2.1-12.1 2.5-16.5 0.3-4.4 1.1-9.1 1.6-10.5 0.5-1.4 2.8-9.5 5-18 2.2-8.5 4.6-20 5.4-25.5 0.7-5.5 1.8-13.4 2.4-17.5 0.6-4.1 1-19 1-33-0.1-14 0.1-28.9 0.5-33 0.5-5.5 0.2-9.7-1.1-16-1.4-6.9-1.8-14.6-2-41-0.2-26.2 0-32.8 1.1-34 0.7-0.8 2.2-4 3.3-7 1-3 3.6-8.3 5.8-11.7 2.1-3.4 6.1-9.5 8.7-13.5 2.7-4 6.5-9.8 8.5-13 2-3.1 7.1-10 11.2-15.5 4.1-5.4 11.3-13.6 16-18.3 5.9-5.9 10.5-9.6 15-11.8 3.6-1.8 8.3-3.6 10.5-3.9 2.2-0.3 4.3-0.2 4.6 0.3 0.4 0.5-0.4 3.6-1.6 6.9-1.3 3.3-3.2 8.7-4.3 12-1.1 3.3-3.9 11.4-6.1 18-2.2 6.6-4.5 14.7-5.2 18-0.7 3.3-1.4 8.3-1.6 11-0.3 2.8 0.1 7.7 0.8 11 0.8 4 2.7 8.2 5.8 12.8 4.4 6.4 5 6.9 12.1 9.6 4.1 1.6 9.7 3.7 12.5 4.6 2.7 0.9 7 2 9.5 2.4l4.5 0.7c-0.2 10-0.5 18.2-0.9 24.6-0.4 7.3-1.1 12.3-1.9 13.1-0.6 0.7-3 1.6-5.2 2-2.2 0.5-5.7 1.2-7.8 1.8-3.2 0.8-3.7 1.3-3.7 3.9 0 1.6 1.1 5.5 2.5 8.5 1.4 3.2 3.7 6.2 5.2 7.2 2 1.1 3.8 1.4 6 1 1.9-0.4 3.5-0.3 3.8 0.3 0.3 0.6-0.1 2.2-0.8 3.6-0.8 1.8-3.2 3.4-7.6 5.2-5.5 2.3-7.4 3.8-12.3 9.7-3.2 3.9-5.8 7.6-5.8 8.3 0 0.8 2 1.2 6.7 1.2 3.8 0 10-0.8 14-1.7 4-1 7.6-1.4 8-1 0.4 0.5 1.2 4.1 1.6 8 0.4 4 1.2 11 1.6 15.7 0.5 4.7 1.4 11.9 2.1 16 0.7 4.1 2.1 9.9 3.1 12.8 1.1 2.8 1.9 7.3 1.9 9.9 0 2.7 0.6 6.8 1.4 9.3 0.8 2.5 2.2 8.6 3.1 13.5 1 4.9 3 12.4 4.5 16.5 1.5 4.1 3.8 11.3 5 16 1.2 4.7 3 9.6 4 11 1 1.4 2.6 5.1 3.4 8.2 0.9 3.2 2.6 7.7 3.7 10 1.2 2.4 3.5 8.4 5.1 13.3 1.6 4.9 4.3 11.5 6 14.5 1.7 3 4.6 8.4 6.5 12 1.8 3.6 3.4 7.4 3.4 8.5-0.1 1.1 0.9 4 2 6.5 1.1 2.5 2.9 5.4 3.9 6.5 1 1.1 6 10.1 11.1 20 5 9.9 10 19.1 10.9 20.5 1 1.4 3.2 5.3 4.9 8.7 1.7 3.5 4.4 7.8 6 9.5 1.6 1.8 3.9 5.3 5 7.8 1.1 2.5 2.1 5.6 2.1 7 0 1.6 1.5 4 4 6.5 2.7 2.7 4.4 5.5 5.1 8.5 0.6 2.5 2.3 6.1 3.8 8 1.6 1.9 3.1 5.3 3.4 7.5 0.4 2.2 1.7 5.4 2.9 7 1.3 1.6 4.1 6.6 6.4 11 2.2 4.4 6.1 11.6 8.5 16 2.4 4.4 5.8 9.8 7.5 12 1.7 2.2 4.7 6.7 6.6 10 2.4 3.9 10.1 12.3 22.5 24.5 10.3 10.2 20.8 20.2 23.3 22.1 2.5 2 7.2 5.2 10.5 7.2 3.3 2 8.2 5.9 11 8.7 2.7 2.9 7.4 6.7 10.2 8.6 2.9 1.9 11.9 9.6 20.1 17.1 8.1 7.5 17.6 15.6 21.2 17.9 3.6 2.3 9.2 6.6 12.5 9.5 3.3 3 8.9 7.6 12.5 10.3 3.6 2.7 8.7 7.1 11.5 9.6 2.7 2.6 8.4 6.9 12.5 9.6 4.1 2.6 11.3 8.3 16 12.4 4.7 4.2 15.9 13.4 25 20.5 9.1 7 18.8 14.9 21.5 17.5 2.7 2.6 7.7 6.7 11 9.1 3.3 2.4 11 9.1 17 14.9 6.1 5.8 17.1 15.5 24.5 21.6 7.4 6.1 18 14.7 23.5 19.1 5.5 4.4 16.5 13.7 24.5 20.7 8 7 17.9 15 22 17.8 4.1 2.8 13.1 9.5 20 14.8 6.9 5.4 15.9 11.6 20 13.8 4.1 2.2 10.4 5.9 14 8.2 3.6 2.4 9.1 6.3 12.2 8.7 3.2 2.4 6.1 4.3 6.5 4.4 0.5 0 3.3 1.8 6.3 3.9 3 2.2 7.7 5.3 10.5 6.9 2.7 1.6 5.7 3.7 6.5 4.6 0.8 0.9 2 1.6 2.5 1.6 0.5 0 4.8 2.4 9.5 5.4 4.7 2.9 12.1 8.1 16.5 11.4 4.4 3.4 13.2 9 19.5 12.7 6.3 3.6 14.2 8.5 17.5 10.9 3.3 2.5 7.6 5.4 9.5 6.5 1.9 1.2 5.1 3.1 7.1 4.3 1.9 1.2 5.5 3.8 8 5.7 2.4 1.9 8 6.4 12.4 10.1 4.4 3.6 15.5 12.2 24.6 19 9.1 6.8 18.8 14 21.4 15.9 2.7 1.9 5.5 4 6.4 4.5 0.9 0.6 4.1 2.6 7.1 4.6 3 2 8 5.2 11 7.1 3 1.9 8.7 6.2 12.5 9.5 3.8 3.2 10.2 7.7 14 10 3.8 2.2 12 8.4 18 13.8 6 5.3 12.8 10.8 15 12.2 2.2 1.4 6.9 5.3 10.5 8.8 3.6 3.4 9.7 8.9 13.5 12.1 3.8 3.3 8.6 6.9 10.5 8.1 1.9 1.1 8.9 7.4 15.5 14 7.4 7.4 13.9 12.8 16.9 14.4 2.7 1.3 6.1 3.5 7.6 4.9 1.5 1.4 4.3 3.6 6.2 5 2 1.4 6 4.4 8.9 6.7 3 2.4 10.1 8.1 15.9 12.8 5.8 4.7 11.5 9.1 12.6 9.8 1.2 0.7 4.8 3 8 5.3 3.3 2.2 11.5 9.6 18.4 16.3 6.9 6.7 15 13.8 18 15.8 3 2 8.4 6.2 12 9.3 3.6 3 8.3 6.7 10.5 8.1 2.2 1.3 5.3 3.1 6.9 3.9 1.6 0.8 4.1 2.6 5.5 4.1 1.4 1.4 7.1 7.1 12.6 12.8 5.5 5.7 12.7 12.1 16 14.3 3.3 2.2 6.8 4.4 7.8 4.9 1.1 0.6 3.7 0.4 7.2-0.6 3-0.8 5.7-2.2 6-3 0.3-0.8 0-2.6-0.5-4-0.5-1.4-0.8-3-0.5-3.5 0.3-0.5 0.2-1-0.2-1-0.5-0.1-0.1-2.1 0.7-4.6l1.5-4.5c-5.6-5-9.4-8.3-12.1-10.6-2.7-2.3-8.8-7.5-13.5-11.5-4.7-4-11.5-8.9-15-10.7-3.5-1.9-8.2-5.1-10.4-7.2-2.2-2-6.9-5.6-10.5-8-3.6-2.4-7.8-5.7-9.5-7.2-1.7-1.6-5-4.3-7.5-6-2.5-1.7-9-7.2-14.6-12.2-5.5-4.9-14.5-12.1-20-15.8-5.4-3.7-11.3-7.8-12.9-9-1.7-1.2-4.2-3.3-5.5-4.5-1.4-1.3-6.5-5.4-11.5-9.1-5-3.6-11.6-8.4-14.9-10.6-3.2-2.2-6.2-4.8-6.7-5.8-0.5-0.9-2.8-3-5.1-4.6-2.4-1.6-10.1-8.1-17.3-14.6-7.2-6.4-17-14.4-21.9-17.8-4.9-3.4-10.9-8-13.4-10.2-2.4-2.2-7.4-6.9-11.1-10.5-3.7-3.6-9.7-9.1-13.4-12.3-3.7-3.1-7-5.7-7.4-5.7-0.5 0-2.9-1.8-5.5-4-2.7-2.2-5.1-4-5.5-4-0.5 0-2.8-1.8-5.3-4.1-2.5-2.2-9.5-7.4-15.5-11.5-6-4.1-15.3-10.6-20.5-14.4-5.2-3.8-13.3-9.8-18-13.2-4.7-3.4-13.7-9.8-20-14.3-6.3-4.5-15.1-11-19.5-14.6-4.4-3.5-11.5-8.7-15.8-11.4-4.3-2.8-11.3-7.3-15.5-10-4.2-2.8-13.5-8.4-20.7-12.5-7.2-4.1-19.3-11.7-27-16.9-7.7-5.3-17.4-11.6-21.7-14.1-4.2-2.5-10.5-6.3-14-8.4-3.4-2.2-10.1-6.7-14.8-10-4.6-3.4-13.2-8.9-19-12.3-5.8-3.4-12.7-7.4-15.3-9-2.7-1.5-7.2-4.6-9.9-6.8-2.8-2.2-8-6.4-11.7-9.3-3.6-2.9-11.1-8.3-16.6-12.1-5.5-3.8-13.6-10-18-13.9-4.4-3.9-17.2-14.5-28.5-23.6-11.3-9.1-23.4-19-27-21.8-3.6-2.9-10.5-9.1-15.5-13.8-5-4.7-11.9-10.8-15.5-13.5-3.6-2.7-9.2-7.2-12.5-10-3.3-2.8-13.4-10.8-22.5-17.8-9.1-7-19.8-15.5-23.9-18.9-4-3.5-12.8-10.6-19.6-15.8-6.7-5.2-16.2-12.8-21.1-16.9-4.9-4.1-12.7-10.7-17.4-14.7-4.7-3.9-11.6-9.2-15.5-11.7-3.9-2.6-13.5-10.6-21.4-17.9-7.9-7.3-19.1-17.8-25-23.4-5.8-5.6-14.2-12.7-18.6-15.9-4.4-3.2-12.7-10.3-18.4-15.9-5.8-5.5-12.7-12.6-15.4-15.6-2.7-3-6.7-8.2-9-11.5-2.2-3.3-5-7.1-6.3-8.5-1.2-1.4-2.8-4.5-3.4-7-0.7-2.5-2.1-6.3-3.2-8.5-1.2-2.2-4.1-7.1-6.6-11-2.5-3.9-8.1-14-12.5-22.5-4.4-8.5-10.4-19.5-13.4-24.5-3-5-6.4-11.7-7.6-15-1.2-3.3-4.1-8.6-6.4-11.8-2.4-3.1-7.3-11.4-11-18.5-3.6-7-9.4-18.1-12.8-24.7-3.4-6.6-7.8-14.9-9.8-18.5-2-3.6-4.5-9-5.5-12-1.1-3-4.3-10.7-7.2-17-2.9-6.3-6.1-13.8-7-16.5-1-2.8-2.9-7.5-4.3-10.5-1.3-3-2.9-7.8-3.5-10.5-0.6-2.8-2.2-7.3-3.5-10-1.4-2.8-3.3-8.6-4.2-13-1-4.4-2.6-9.8-3.6-12-1-2.2-2.9-9.4-4.3-16-1.3-6.6-2.9-15.6-3.5-20-0.6-4.4-1.7-9.6-2.4-11.5-0.8-1.9-2.2-9.6-3.1-17-1-7.4-2.4-18-3.3-23.5-0.8-5.6-1.7-19.9-2-32.5-0.3-12.4 0-29.9 0.6-39 0.6-9.1 1.8-21 2.6-26.5 0.9-5.5 2-13.4 2.5-17.5 0.5-4.1 1.6-12.2 2.5-18 0.9-5.8 2-13.7 2.6-17.5 0.5-3.9 1.6-10.6 2.5-15 0.9-4.4 1.9-10 2.3-12.5 0.5-2.5 1.4-6.6 2.2-9.2 1.3-4.3 1.2-5.6-0.5-12.5-1-4.3-2-8.4-2.2-9.1-0.2-0.6-1.6-1.7-3.1-2.3-1.6-0.6-7.5-2.2-13.3-3.5-8-1.8-13.2-2.4-22-2.3-6.3 0-12.9 0.5-14.5 1z"/>
		<path id="Path 2" class="s0" d="m232.5 734c-2.2 0.4-6.3 1.9-9 3.2-2.8 1.3-5 2.9-5 3.5 0 0.6 3.6 5.1 8.1 10 4.4 4.8 10.7 10.6 14 12.9 3.2 2.2 7.4 4.8 9.2 5.7 1.7 1 4.3 1.7 5.7 1.7 1.5 0 4.1-1.5 6.6-3.8 3.6-3.2 4-4.1 3.5-6.7-0.4-1.6-2.2-5.7-4-9-1.9-3.3-5.8-8.8-8.7-12.2l-5.4-6.3c-8.5 0.2-12.8 0.6-15 1z"/>
		<path id="Path 3" class="s0" d="m177 680.8c-2.2 5.4-2.2 5.9-0.6 9.2 0.9 1.9 4.5 6.4 8 10 3.4 3.6 8.2 8.6 10.4 11.3 2.5 2.8 4.2 5.7 4.2 7.2 0 1.4 1.4 4.1 3.2 6.1 1.8 2 4.8 4.5 6.5 5.5l3.3 1.9c6.6-4.7 12.1-8.4 16.5-11.2 5.6-3.5 9.9-5.4 14.5-6.4 3.6-0.8 7.7-1.4 9.3-1.4 2.2 0 3.2 0.9 5.4 4.8 1.5 2.6 4.1 6.3 5.9 8.2 1.7 1.9 3.4 4.4 3.7 5.5 0.3 1.1 3.1 4.4 6.2 7.3 3 2.8 5.9 5.2 6.5 5.2 0.6 0 1.6-1 2.3-2.2 0.8-1.3 1.7-3.9 2.1-5.8 0.4-1.9 1.5-4 2.4-4.7 1.3-0.9 1.7-2.6 1.7-7-0.1-3.2-0.9-7.8-1.9-10.3-0.9-2.5-3-5.8-4.4-7.3-1.5-1.6-8-7.9-14.5-14-7.1-6.7-12.1-10.8-12.5-10.1-0.4 0.6-2.7 2.4-5.1 4-2.4 1.6-4.9 3.2-5.5 3.6-0.6 0.4-4.3 2.1-8.1 3.7-3.8 1.6-9.7 3.5-13 4.1-3.3 0.7-8.3 1-11 0.7-3.4-0.4-6.1-1.5-8.5-3.5-1.9-1.5-5.1-3.8-7-4.9-1.9-1.2-6.1-5.1-9.3-8.7-3.1-3.6-6.3-6.6-7.1-6.6-0.8 0-2.4 2.5-3.6 5.8z"/>
		<path id="Path 4" class="s0" d="m202.7 624.4c-2.1 0.9-4.2 1-8.2 0.3-4.6-0.9-6.1-0.7-9.6 0.9-2.3 1-5.7 3.6-7.5 5.7-1.9 2-3.4 4.6-3.4 5.7 0 1.1 2.3 4.5 5 7.5 2.8 3 5.8 6.7 6.8 8.2 0.9 1.5 3.7 4.5 6.1 6.8 2.4 2.2 5.2 4.3 6.2 4.8 1.1 0.4 2.3 1.6 2.9 2.7 0.6 1.1 2.6 2.7 4.5 3.5 1.9 0.8 3.5 2 3.5 2.5 0 0.6 3.3 1 8 1 7.2 0 8.7-0.3 14.8-3.5 3.7-2 7.1-3.5 7.7-3.5 0.6 0.1 1.7-0.6 2.5-1.5 1.3-1.4 1.3-1.7-0.1-3.3-0.9-0.9-2.6-3.6-3.8-5.9-1.1-2.4-4.2-6.7-6.7-9.5-2.5-2.9-7.1-8.2-10.2-11.7-3.1-3.6-7.7-7.8-10.2-9.3-2.5-1.6-4.7-2.8-5-2.7-0.3 0-1.8 0.6-3.3 1.3z"/>
		<path id="Path 5" class="s0" d="m510.6 115.2c-2.9 0.9-3 1.2-2.8 6.6 0.2 5-0.1 6.2-2.8 9.7-1.7 2.2-3.1 4.6-3 5.2 0 0.7-1.3 4.6-2.9 8.5-1.6 4-3.6 10.2-4.6 13.8-0.9 3.6-2.6 10.3-3.7 15-1.4 6.1-1.7 10.2-1.3 14.5 0.4 3.3 1.3 7.2 2.1 8.7 0.8 1.6 3.1 3.7 5.1 4.7 2.1 1 6.3 2.6 9.3 3.5 3 0.9 5.8 1.3 6.1 0.8 0.3-0.4 1.2-2.7 1.9-5.2 0.7-2.5 1.7-7.9 2.1-12 0.4-4.1 1.4-12.9 2.3-19.5 0.9-6.6 2-15.6 2.5-20 0.4-4.4 1.8-10.3 3-13 1.2-2.8 2.1-6.6 2.1-8.5 0-1.9-0.8-5.9-1.7-8.8l-1.8-5.3c-7 0.2-10.3 0.7-12 1.3z"/>
		<path id="Path 6" class="s0" d="m472.5 119.5c-3.3 1.4-8.4 4.5-11.4 6.8-3 2.3-7.9 6.9-10.8 10.2-3 3.3-8.7 10.2-12.6 15.3-4 5.2-8.9 11.9-10.9 15-2 3.2-5.8 9-8.5 13-2.6 4-6.6 10.1-8.7 13.5-2.2 3.4-4.8 8.7-5.8 11.7-1.1 3-2.6 6.2-3.3 7-1.1 1.2-1.3 7.8-1.1 34 0.2 26.4 0.6 34.1 2 41 1.3 6.3 1.6 10.5 1.1 16-0.4 4.1-0.6 19-0.5 33 0 14-0.4 28.9-1 33-0.6 4.1-1.7 12-2.4 17.5-0.8 5.5-3.2 17-5.4 25.5-2.2 8.5-4.5 16.6-5 18-0.5 1.4-1.3 6.1-1.6 10.5-0.4 4.4-1.5 11.8-2.5 16.5-1.1 4.7-2.4 11.4-3 15-0.6 3.6-1.5 8.8-2.1 11.5-0.6 2.8-1.4 5.4-1.9 5.8-0.5 0.5-2.8 0.9-5.2 0.8-2.4 0-6.4-0.7-8.9-1.6-2.5-0.9-5.5-2.2-6.7-3-1.7-1.1-2.3-2.4-2.3-5.2 0-2.1 1.1-7.2 2.4-11.3 1.3-4.1 2.7-10.6 3.1-14.5 0.4-3.9 1.6-9.2 2.7-12 1.1-2.7 2.3-9.1 2.8-14 0.4-4.9 1.5-10.8 2.3-13 0.8-2.2 1.9-6.9 2.5-10.5 0.7-3.6 1.8-8.7 2.5-11.5 0.8-2.7 1.7-7.4 2.1-10.2l0.6-5.3c-9.8-11.2-14.2-14.8-20.5-18.5-4.9-3-12.1-7.9-16-11-3.9-3-9-6.9-11.5-8.7-2.5-1.7-10.4-7.6-17.5-12.9-7.1-5.3-18.6-15-25.5-21.5-6.9-6.6-14.1-13-16-14.4-1.9-1.4-12.8-11.7-24.1-23-11.3-11.3-23.5-23-27-26.1-3.5-3.1-12-11.6-18.9-19-6.9-7.3-16.4-17-21.1-21.4-4.7-4.4-14.2-12.9-21.1-19-6.9-6.1-13.6-11.5-14.9-12.2-1.3-0.6-6.6-2.8-11.6-4.7l-9.3-3.6c-14.3 6.7-20.2 10.2-22.4 12.1-2.1 1.9-4.4 4.5-5.1 5.9-0.7 1.4-1.6 4.3-2 6.5-0.6 3.5 0 5.2 4.3 14 2.8 5.5 6.9 12.3 9.2 15 2.2 2.8 4.7 5.3 5.5 5.8 0.9 0.4 2.9-0.3 5.3-1.8 2-1.4 4.3-2.5 5-2.5 0.7 0 1.2 1.2 1.1 2.8 0 1.5-0.4 4.5-0.8 6.7-0.7 3.6-0.3 4.9 4.2 13.5 2.7 5.2 6.1 10.4 7.5 11.5 1.4 1.1 3.9 4 5.6 6.5 1.7 2.5 10.7 12.3 20.1 21.8 9.3 9.5 17.7 17.2 18.5 17.2 0.8 0 4.2-3 7.5-6.5 3.3-3.6 6.6-6.5 7.3-6.5 0.6 0 1.2 1 1.2 2.3 0 1.2-1.1 6.5-2.5 11.7-1.3 5.2-2.5 10.2-2.5 11 0 0.8 2.5 3.3 5.6 5.5 3.1 2.2 8 6.5 10.7 9.5 2.8 3 6.6 7.9 8.6 10.8q3.6 5.4 10.9 10.3c3.9 2.7 7.8 4.9 8.5 4.9 0.6-0.1 2.6-1.7 4.3-3.8 1.7-2 4.4-4 6-4.3 1.6-0.4 4.4-1.3 6.2-2 2.8-1.2 3.6-1.2 6 0.3 1.5 0.9 3.6 2.8 4.7 4.3 1.5 2 2 4.2 2 8.3-0.1 5.1-0.6 6.5-5 13.4-2.8 4.2-5.9 9.2-7 11-1.6 2.6-3 3.5-6.5 4.2-3.3 0.6-5.9 0.4-10-0.8-5-1.4-7-3.1-22.6-18.3-9.4-9.3-20.6-20.6-25-25.3-4.3-4.7-10.8-11.3-14.4-14.6-3.6-3.3-14.8-14.5-24.9-25-14.9-15.3-20-21.3-26.6-31.4-4.6-6.9-11.2-15.7-14.6-19.5-3.5-3.9-8.2-9.3-10.5-12-2.2-2.8-7-9.5-10.6-15-3.7-5.5-7.3-11.7-8.2-13.8-0.9-2-2-3.7-2.6-3.7-0.5 0-2.9 1.6-5.2 3.5-2.4 2-5.4 3.8-6.8 4.1-1.4 0.2-5.8 2.1-9.9 4.2-4.2 2.1-8.1 4.8-8.9 6.2-1.1 1.7-1.3 3.6-0.9 6 0.4 1.9 2.9 8 5.6 13.5 2.6 5.5 6.9 12.7 9.4 16 2.5 3.3 5.8 7.2 7.4 8.7l2.8 2.7c10.5-9.2 13.7-11.8 13.9-11.7 0.2 0.2 0 3.2-0.5 6.8-0.5 3.6-1.6 8.4-2.4 10.8l-1.5 4.2c23.7 24.4 33.2 34.9 36.4 39 3.3 4.1 9.2 10.9 13.1 15 4 4.1 8.6 9.9 10.4 12.7 1.7 2.9 3.3 5.3 3.6 5.3 0.3 0 1.7-1.9 3.2-4.3 1.5-2.3 4.3-5.6 6.2-7.4 2-1.7 3.9-3 4.4-2.7 0.4 0.2 0.7 3.9 0.7 8.2 0 4.2-0.7 10.2-1.5 13.2-1.4 5.2-1.3 5.7 0.7 9.5 1.1 2.2 4.3 6.9 7 10.5 2.6 3.6 6.7 8.5 9.1 11 2.3 2.5 7.1 8.2 10.7 12.5 3.6 4.4 7.9 9.3 9.5 11 1.7 1.6 5.4 5.9 8.2 9.5 2.9 3.6 6.8 8.8 8.6 11.5 1.9 2.8 4.1 5.7 5.1 6.5 1.5 1.4 2 1.2 4.9-1.8 1.9-2 4-3.2 5.1-3 1.3 0.2 2.3 1.5 2.9 3.8 0.5 1.9 0.7 8.4 0.5 14.5-0.4 8.8-0.9 12.2-2.9 17-1.9 4.5-3.1 6.1-4.7 6.3-1.2 0.1-3.9-0.8-5.9-1.9l-3.8-2.2c-9.7 4.9-13.5 7.3-14.7 8.4-2.1 2-3 2.1-9.3 1.6-3.8-0.3-10.8-0.9-15.5-1.3l-8.5-0.6c-7.4 5.7-10.7 9.8-14 15.3-2.7 4.6-5.8 10.7-6.8 13.4-1.1 2.8-2.3 6.4-2.8 8-0.4 1.6-2 5.9-3.5 9.5-2.4 5.6-2.8 8.2-3.2 18.5-0.4 11.2-0.2 12.4 2.3 18.5 1.5 3.6 4 9.5 5.6 13.3 1.6 3.7 2.7 7.2 2.4 7.7-0.3 0.5 0.8 2.9 2.4 5.2 1.5 2.4 4 6.5 5.5 9.3 1.4 2.7 4.5 8 6.9 11.6 2.3 3.7 5.4 8.1 7 9.8 1.6 1.8 3.2 2.8 4 2.4 0.6-0.4 3-2.1 5.2-3.9 2.2-1.8 6.5-4.2 9.5-5.3 3-1.2 7.1-3.2 9-4.5 2.9-2 5.3-2.5 14.5-3.1 9-0.5 11.7-0.4 15 1 2.2 0.9 5.2 2.8 6.8 4.3 1.5 1.5 2.7 3.3 2.7 3.9 0 0.7 5.1 7 11.3 13.9 6.1 6.9 12.1 13.6 13.2 15 2 2.4 2 2.5 0.1 7.7-1.4 3.8-1.6 5.7-0.8 7.2 0.9 1.9 1.1 1.8 2.7-1.5 1-1.9 2.2-4.9 2.6-6.5 0.4-1.6 1.7-5.7 3-9l2.3-6c-3.8-4.5-8-9.4-11.9-13.8-3.8-4.3-9.8-11.1-13.2-15-3.5-4-8.9-10.3-12-14.2-3.1-3.9-9-10.7-13-15.3-4-4.5-8-9.6-8.8-11.2-0.8-1.6-2.8-3.9-4.5-5-1.6-1.1-4-2-5.2-2-1.4 0-4.5-2.3-8-5.8-3.2-3.1-5.8-6.5-5.8-7.5 0-0.9 2.1-3.7 4.8-6.2 2.6-2.5 5.3-4.5 6-4.5 0.6 0 5.8 1.6 11.5 3.6 9.6 3.3 10.4 3.5 13.2 2.1 1.7-0.8 4.1-1.8 5.5-2.2 1.4-0.4 4-1.6 5.8-2.6 1.7-1.1 3.5-1.7 4-1.4 0.4 0.3-0.1 2.3-1 4.5-1 2.2-1.8 4.8-1.8 5.7 0 1-1.4 4.7-3.1 8.3-3 6.3-3 6.6-1.5 9.7 0.9 1.8 3.2 4.5 5.2 6 2 1.6 4 3.3 4.5 3.8 0.5 0.5 3.2 3.9 5.9 7.5 2.8 3.6 5.1 6.8 5 7.2 0 0.5 1.4 2.3 3.1 4 1.7 1.8 7.3 7.6 12.6 12.8 5.2 5.2 10.8 11.5 12.5 14 3 4.5 3 4.5 2.6 16.5-0.4 11-0.7 12.6-3.6 18.5-1.7 3.6-3.8 8.5-4.7 11-0.8 2.5-1.5 5.1-1.5 5.7 0 0.8 0.8 1.1 2 0.8 1.4-0.4 2.7 0.4 4.3 2.6 1.2 1.7 4.5 4.7 7.2 6.7 2.8 2 6.7 4.8 8.7 6.2 2.1 1.4 5.6 5.2 7.8 8.5 2.2 3.3 4 6.8 4 7.7 0 1 0.5 2.8 1.1 4 0.7 1.3 4.4 5.9 8.4 10.3 3.9 4.4 8.6 9.6 10.3 11.5 1.8 1.9 5.5 6.4 8.3 10 2.8 3.6 8.7 10.7 13.2 15.9 4.5 5.1 13.4 14.1 19.7 20 6.4 5.8 15.1 13.5 19.5 17.1 4.3 3.6 10.6 8.7 14 11.5 3.3 2.7 8.3 6.5 11.1 8.5 2.8 1.9 9.6 7.2 15 11.8 5.5 4.6 12.8 10.1 16.4 12.3 3.6 2.3 11 6.8 16.5 10 5.5 3.3 13.4 8.3 17.5 11.2 4.1 2.9 9.3 5.8 11.5 6.5 2.2 0.6 7.3 2.9 11.3 5 4 2 10 5.9 13.5 8.7 3.4 2.7 10.7 9.5 16.3 15 5.5 5.5 14.3 15.2 19.5 21.5 5.3 6.3 14.4 16.7 20.4 23 5.9 6.3 13.3 14.6 16.3 18.5 3.1 3.9 9.2 11.1 13.6 16.1 4.5 5.1 11.5 13.3 15.6 18.4 4.1 5 10 12.8 13 17.3 3.1 4.5 9.2 13.2 13.6 19.2 4.4 6 9.8 13.4 12 16.4 2.1 2.9 6.8 9.2 10.4 14 3.5 4.7 11.3 15.6 17.2 24.1 6 8.5 16.8 24.5 24.2 35.5 7.3 11 16.7 24.5 20.8 30 4.1 5.5 10.5 14.7 14.3 20.5 3.7 5.8 13.2 19.3 21 30 7.8 10.7 16.9 23.5 20.2 28.5 3.3 5 9.2 12.5 12.9 16.9 3.8 4.3 9.5 11.3 12.7 15.5 3.2 4.2 7.4 10.3 9.3 13.6 1.9 3.3 6 10 9.1 15 3.1 5 7.9 13 10.6 18 2.7 5 6.3 10.8 8.1 13 1.8 2.2 6.4 9 10.3 15 3.9 6 8.3 13.5 9.8 16.5 1.5 3 6.1 10.7 10.2 17 4.2 6.3 8.8 13.3 10.4 15.5 1.6 2.2 7.6 11 13.3 19.5 5.8 8.5 14 20 18.2 25.5 4.2 5.5 8.8 11.3 10.3 13 1.5 1.7 4.6 5.8 6.9 9.2 2.3 3.5 4.2 6.5 4.2 6.8 0 0.3 1.7 2.9 3.8 5.7 2.1 2.9 7.7 9.3 12.4 14.3 6.9 7.3 8.8 10 10.2 14.5 1.2 4.1 3.2 7.2 7.6 12 3.4 3.6 7.4 8.7 8.9 11.5 1.6 2.7 4.7 9.3 6.8 14.5 2.2 5.2 5.6 11.7 7.5 14.5 2 2.7 4.8 8.4 6.2 12.5 1.5 4.1 4.7 10.9 7.2 15 2.4 4.1 5.1 9.6 5.9 12.2l1.5 4.8c5-3.8 9.9-6.4 14-8.3 4.1-1.9 10.8-4.2 14.8-5.1 3.9-0.9 10.1-1.6 13.7-1.6 3.6 0 8-0.6 9.8-1.4 1.7-0.7 6.6-2.1 10.7-3 5-1.1 11.2-1.7 18.5-1.6 7.2 0.1 13.3-0.4 17.5-1.4 3.7-0.9 10.9-1.6 16.5-1.6 6 0 12.2-0.7 15.5-1.6 3-0.9 11.1-1.9 18-2.4 6.9-0.4 16.1-1.7 20.5-2.9 4.4-1.1 10.4-2.1 13.3-2.1 3.2 0 7.6-1 11.5-2.5 3.4-1.3 9.1-3.1 12.7-4 3.6-0.8 8.3-1.5 10.5-1.5 2.3 0 6.8-1.2 10.5-2.9 3.6-1.6 9.8-3.6 13.8-4.5 3.9-0.9 8.7-1.6 10.5-1.6 1.7 0 6.6-1.5 10.7-3.4 4.1-1.9 11.5-4.2 16.5-5.2 5-0.9 12.8-3.4 17.5-5.4 4.7-2.1 11.8-4.5 15.8-5.4 3.9-0.9 8.4-1.6 10-1.6 1.5 0 6.1-1.5 10.2-3.4 4.1-1.8 10-3.9 13-4.6 3-0.7 7.5-2.5 10-4.1 2.5-1.5 7.4-4.1 11-5.7 3.6-1.6 9.8-3.7 13.8-4.6 3.9-0.9 8.4-1.6 10-1.6 1.5 0 6.1-1.5 10.2-3.4 4.1-1.8 10.8-4.1 14.8-5 3.9-0.9 8.7-1.6 10.5-1.6 1.7 0 6.6-1.5 10.7-3.4 4.1-1.8 10-3.9 13-4.6 3-0.7 9.3-3.1 14-5.5 4.7-2.4 11.7-5.3 15.5-6.5 3.8-1.2 9-3.6 11.5-5.4 2.5-1.9 7.4-4.8 11-6.6 3.6-1.8 9.5-6 13.1-9.4 3.8-3.5 10.1-8 15-10.5 4.9-2.6 11.3-7.1 15.4-10.9 4.8-4.4 9.7-7.7 15.8-10.6l8.7-4.1c-11.4-7.3-19-14-25-20.1-5.8-5.9-11.7-11.9-13.1-13.3-1.4-1.5-3.9-3.3-5.5-4.1-1.6-0.8-4.7-2.6-6.9-3.9-2.2-1.4-6.9-5.1-10.5-8.1-3.6-3.1-9-7.3-12-9.3-3-2-11.1-9.1-18-15.8-6.9-6.7-15.1-14.1-18.4-16.3-3.2-2.3-6.8-4.6-8-5.3-1.1-0.7-6.8-5.1-12.6-9.8-5.8-4.7-12.9-10.4-15.9-12.8-2.9-2.3-6.9-5.3-8.9-6.7-1.9-1.4-4.7-3.6-6.2-5-1.5-1.4-4.9-3.6-7.6-4.9-3-1.6-9.5-7-16.9-14.4-6.6-6.6-13.6-12.9-15.5-14-1.9-1.2-6.7-4.8-10.5-8.1-3.8-3.2-9.9-8.7-13.5-12.1-3.6-3.5-8.3-7.4-10.5-8.8-2.2-1.4-9-6.9-15-12.2-6-5.4-14.2-11.6-18-13.8-3.8-2.3-10.2-6.8-14-10-3.8-3.3-9.5-7.6-12.5-9.5-3-1.9-8-5.1-11-7.1-3-2-6.2-4-7.1-4.6-0.9-0.5-3.7-2.6-6.4-4.5-2.6-1.9-12.3-9.1-21.4-15.9-9.1-6.8-20.2-15.4-24.6-19-4.4-3.7-10-8.2-12.4-10.1-2.5-1.9-6.1-4.5-8-5.7-2-1.2-5.2-3.1-7.1-4.3-1.9-1.1-6.2-4-9.5-6.5-3.3-2.4-11.2-7.3-17.5-10.9-6.3-3.7-15.1-9.3-19.5-12.7-4.4-3.3-11.8-8.5-16.5-11.4-4.7-3-9-5.4-9.5-5.4-0.5 0-1.7-0.7-2.5-1.6-0.8-0.9-3.7-3-6.5-4.6-2.7-1.6-7.5-4.7-10.5-6.9-3-2.1-5.8-3.9-6.2-3.9-0.5-0.1-3.4-2-6.5-4.4-3.2-2.4-8.7-6.3-12.3-8.7-3.6-2.3-9.9-6-14-8.2-4.1-2.2-13.1-8.4-20-13.8-6.9-5.3-15.9-12-20-14.8-4.1-2.8-14-10.8-22-17.8-8-7-19-16.3-24.5-20.7-5.5-4.4-16.1-13-23.5-19.1-7.4-6.1-18.4-15.8-24.5-21.6-6-5.8-13.7-12.5-17-14.9-3.3-2.4-8.2-6.5-11-9.1-2.7-2.6-12.4-10.5-21.5-17.5-9.1-7.1-20.3-16.3-25-20.5-4.7-4.1-11.9-9.8-16-12.4-4.1-2.7-9.7-7-12.5-9.6-2.7-2.5-7.9-6.9-11.5-9.6-3.6-2.7-9.2-7.3-12.5-10.3-3.3-2.9-8.9-7.2-12.5-9.5-3.6-2.3-13.1-10.4-21.2-17.9-8.2-7.5-17.2-15.2-20-17.1-2.9-1.9-7.5-5.7-10.3-8.6-2.7-2.8-7.7-6.7-11-8.7-3.3-2-8-5.2-10.5-7.2-2.5-1.9-13-11.9-23.3-22.1-12.4-12.2-20.1-20.6-22.5-24.5-1.9-3.3-4.9-7.8-6.6-10-1.7-2.2-5.1-7.6-7.5-12-2.4-4.4-6.3-11.6-8.5-16-2.3-4.4-5.1-9.4-6.4-11-1.2-1.6-2.5-4.8-2.9-7-0.3-2.2-1.8-5.6-3.4-7.5-1.5-1.9-3.2-5.5-3.8-8-0.7-3-2.4-5.8-5.1-8.5-2.5-2.5-4-4.9-4-6.5 0-1.4-1-4.5-2.1-7-1.1-2.5-3.4-6-5-7.7-1.6-1.8-4.3-6.1-6-9.5-1.7-3.5-3.9-7.4-4.9-8.8-0.9-1.4-5.9-10.6-10.9-20.5-5.1-9.9-10.1-18.9-11.1-20-1-1.1-2.8-4-3.9-6.5-1.1-2.5-2.1-5.4-2-6.5 0-1.1-1.6-4.9-3.4-8.5-1.9-3.6-4.8-9-6.5-12-1.7-3-4.4-9.6-6-14.5-1.6-4.9-3.9-10.9-5.1-13.2-1.1-2.4-2.8-6.9-3.7-10-0.8-3.2-2.4-6.9-3.4-8.3-1-1.4-2.8-6.3-4-11-1.2-4.7-3.5-11.9-5-16-1.5-4.1-3.5-11.6-4.5-16.5-0.9-4.9-2.3-11-3.1-13.5-0.8-2.5-1.4-6.6-1.4-9.2 0-2.7-0.8-7.2-1.9-10-1-2.9-2.4-8.7-3.1-12.8-0.7-4.1-1.6-11.3-2.1-16-0.4-4.7-1.2-11.7-1.6-15.7-0.4-3.9-1.2-7.5-1.6-8-0.4-0.4-4 0-8 1-4 0.9-10.2 1.7-13.9 1.7-4.8 0-6.8-0.4-6.8-1.2 0-0.7 2.6-4.4 5.8-8.3 4.9-5.9 6.8-7.4 12.3-9.7 4.4-1.8 6.8-3.4 7.7-5.2 0.6-1.4 1-3 0.7-3.6-0.3-0.6-1.9-0.7-3.7-0.3-2.3 0.4-4.1 0.1-6-1-1.6-1-3.9-4-5.3-7.2-1.4-3-2.5-6.9-2.5-8.5 0-2.6 0.5-3.1 3.8-3.9 2-0.6 5.5-1.3 7.7-1.8 2.2-0.4 4.6-1.3 5.3-2 0.7-0.8 1.4-5.8 1.8-13 0.4-6.5 0.7-14.7 0.8-18.3l0.1-6.4c-7-1.1-11.2-2.2-14-3.1-2.7-0.9-8.4-3-12.5-4.6-7.1-2.7-7.7-3.2-12.1-9.6-3.1-4.6-5-8.8-5.8-12.8-0.7-3.3-1.1-8.2-0.8-11 0.2-2.7 0.9-7.7 1.6-11 0.7-3.3 3-11.4 5.2-18 2.2-6.6 5-14.7 6.1-18 1.1-3.3 3-8.7 4.3-12 1.2-3.3 2.1-6.3 1.9-6.7-0.2-0.5-1.6-0.8-3.1-0.8-1.6 0-5.5 1.2-8.8 2.5z"/>
		<path id="Path 7" class="s1" d="m548.3 839c-1.8 1.1-3.6 3-3.9 4.3-0.5 1.6-0.1 2.6 1.6 3.7 1.2 0.8 3.4 2.6 4.9 4.1 1.4 1.4 5.5 6.1 9.1 10.5 3.5 4.3 10.5 12.2 15.5 17.4 4.9 5.3 14.7 15.8 21.6 23.5 7 7.7 14.9 16.7 17.7 20 2.7 3.3 6.5 7.4 8.3 9.2 1.9 1.8 5.1 3.9 7.2 4.7 3.1 1.3 4.2 1.4 6.8 0.4 3.1-1.3 3.2-1.4 2.8-7-0.3-3.9-1.1-6.5-2.6-8.5-1.3-1.5-2.9-4.2-3.6-5.8-0.8-1.6-2.8-5-4.6-7.5-1.8-2.5-8.3-10.1-14.5-17-6.2-6.9-14.1-15.9-17.6-20-3.4-4.1-9.2-9.7-12.8-12.5-3.6-2.7-8.3-7.4-10.5-10.2-2.3-3.3-4.5-5.3-5.7-5.3-1.1 0-4.7-1.4-8-3-3.3-1.6-6.6-3-7.2-3-0.7 0-2.8 0.9-4.5 2z"/>
		<path id="Path 8" class="s1" d="m584.5 742.2c-7.3 2.9-9 4.1-19.9 14.7-6.5 6.4-14.6 15.5-18 20.3-3.8 5.4-8.4 10.5-12.3 13.5-3.4 2.6-9.6 8.4-13.6 12.8l-7.4 8c1.4 7.7 2.4 10.7 3.2 11.5 0.8 0.8 2.1 3.6 3 6.2 1.2 3.9 1.9 4.8 3.7 4.8 1.3 0 2.8-0.4 3.4-0.8 0.6-0.4 2.5-3 4.2-5.7 1.7-2.9 5.1-6.5 8.1-8.5 2.8-1.9 6.6-5.5 8.5-8 1.8-2.5 5.5-8.8 8.2-14 3.1-6 7.2-11.9 11.2-16.2 3.4-3.8 9.7-10 14-13.9 4.2-3.9 8.4-8.1 9.2-9.5 1.2-1.9 1.2-2.8 0.3-4.2-0.9-1.4-0.5-2.5 2.3-6.2 1.9-2.5 3.4-5.2 3.2-6-0.2-0.8-1-1.6-1.8-1.7-0.8-0.1-5.1 1.2-9.5 2.9z"/>
		<path id="Path 9" class="s1" d="m571.5 690.1c-2.2 0.5-5.3 1.5-6.9 2.2-1.6 0.6-3.7 2.8-4.6 4.7-1 1.9-2.3 5.3-3 7.5-1 2.9-5.1 7.8-15.5 18.5-7.8 8-15.4 16.2-17.1 18.4-1.6 2.1-4.1 4.5-5.6 5.2-1.6 0.8-4 1.4-5.5 1.4-1.8-0.1-4.9 1.6-8.8 4.6-3.3 2.5-8 5.5-10.5 6.6-2.8 1.3-7.9 2.3-13.4 2.7-4.8 0.3-9 0.8-9.2 1.1-0.2 0.3-0.8 3.2-1.4 6.5-0.5 3.3-0.7 8.2-0.3 11 0.4 2.7 1.6 6.1 2.7 7.4 1.3 1.5 3.2 2.4 5.1 2.4 1.8 0 6.3-1.8 11-4.5 4.4-2.4 13.9-7.8 21-12 7.1-4.1 16.1-9.1 20-11.1 3.9-2 10.8-7 15.5-11.2 4.7-4.2 9.6-7.8 11-8 1.4-0.3 3.7-1.6 5.3-3 1.5-1.4 3-3.7 3.3-5.3 0.4-1.5 1.6-4.5 2.7-6.7 1.1-2.2 3.9-6.1 6.3-8.8 3.6-3.9 4.4-5.4 4.3-8.5 0-2-0.4-6-0.9-8.7-0.7-4.1-0.5-5.5 1.1-8 1-1.6 1.9-3.6 1.9-4.3 0-0.6-1-1.2-2.2-1.1-1.3 0.1-4.1 0.5-6.3 1z"/>
		<path id="Path 10" class="s1" d="m596.4 648.3c-0.3 0.6 0.2 4.1 1.1 7.7 0.9 3.6 3.6 13.1 6.1 21.3 2.4 8.1 4.4 16.3 4.4 18.2 0 2.7 0.6 3.9 2.6 5.3 2 1.3 3 1.4 4.3 0.6 0.9-0.6 3.2-4 5.1-7.5 2.7-5 3.4-7.5 3.4-11.4-0.1-3.1-1.2-7.7-3-12-1.5-3.8-4.3-9.5-6.2-12.5-1.8-3-4.1-6.3-5-7.3-1.1-1.1-3.1-1.8-5.4-1.7-2.1 0-4-0.4-4.3-1-0.3-0.5-1-1-1.5-1-0.6 0-1.3 0.6-1.6 1.3z"/>
		<path id="Path 11" class="s1" d="m279.3 551c-1.8 1.1-3.6 2.8-4 3.8-0.3 0.9-0.1 3.7 0.6 6.2 0.6 2.5 3.8 9.9 7 16.5 3.3 6.6 8.4 17.6 11.4 24.5 3 6.9 6.9 16.1 8.7 20.5 1.8 4.4 5 13.2 7.2 19.5 2.1 6.3 5 15.3 6.3 20 1.3 4.7 2.8 11.2 3.4 14.5 0.6 3.3 2.2 11.5 3.6 18.3 1.4 6.7 3.2 13.3 4 14.7 1 1.6 2.4 2.5 4 2.5 1.5 0 3-0.9 3.9-2.3 0.8-1.2 1.9-4.7 2.6-7.7 0.7-3.1 1-8.1 0.7-11.5-0.3-3.3-1.7-9.1-3.2-13-1.4-3.9-3-10.6-3.5-15-0.5-4.4-2.5-13-4.5-19-2.1-6-4-11.2-4.5-11.5-0.4-0.3-1.9-4.8-3.4-10-1.5-5.2-3.8-11.5-5.2-14-1.4-2.5-3.6-7.6-4.8-11.5-1.2-3.9-3.8-9.3-5.7-12-1.9-2.8-4.1-6.8-4.8-9-0.8-2.2-3.5-8.3-6.1-13.5-2.6-5.2-5.5-10.3-6.4-11.3-0.9-0.9-2.2-1.7-2.9-1.7-0.6 0-2.7 0.9-4.5 2z"/>
		<path id="Path 12" class="s1" d="m317.7 441.3l-6.8 2.2c0.9 39.5 1.6 54.1 2.3 58 0.6 3.9 1.7 9.5 2.5 12.5 0.8 3 2.5 9.5 3.9 14.5 1.3 5 2.9 10.8 3.5 13 0.5 2.2 2.7 6.5 4.9 9.5 2.2 3 6.2 9.3 8.9 14 2.7 4.7 7.2 13.2 10 19 2.8 5.8 6.7 14.8 8.7 20 2 5.2 5.2 15.2 7 22.2 1.9 7.1 4.3 14.9 5.3 17.5 1 2.7 3.1 9.1 4.6 14.3 1.5 5.2 3.7 11.5 5 14 1.2 2.5 2.9 6.7 3.8 9.5 0.8 2.7 3 8.1 5 12 1.9 3.9 6.3 11.4 9.8 16.7 3.5 5.4 9.5 14.7 13.4 20.8 3.9 6.1 7.9 12.2 9 13.5 1.2 1.5 3.5 2.7 6 3.1l4 0.6c2.3-7.3 3.3-9.6 3.8-9.8 0.4-0.2 0.4-2.3 0-4.7-0.3-2.3-1.8-6.2-3.1-8.7-1.4-2.5-3.3-5.4-4.2-6.5-1-1.1-4.6-6-8-11-3.5-5-6.6-9.9-7-11-0.4-1.1-3.1-6-5.9-11-2.8-5-6.3-12.1-7.8-16-1.4-3.9-4.1-10.4-5.9-14.5-1.8-4.1-3.8-10.2-4.5-13.5-0.6-3.3-2.4-8.9-3.9-12.5-1.5-3.6-4.1-11.5-5.8-17.5-1.7-6-4.3-14.4-5.7-18.5-1.5-4.2-4.1-9-5.9-11-2.4-2.6-3.4-4.8-3.9-8.8-0.6-4.1-1.2-5.5-3.2-6.7-2.1-1.3-2.5-2.3-2.7-7.3-0.3-5.7-0.3-5.7-3.5-6-2.6-0.1-3.5-0.8-4.4-3-0.5-1.5-0.8-3.4-0.6-4.2 0.3-0.8-0.8-3.5-2.4-6-1.6-2.5-2.9-4.8-2.9-5.3 0-0.4-0.9-1.9-2-3.5-1.2-1.6-2.4-5.7-3-10.2-0.6-4.1-2.4-11.3-4-16-2.9-8.2-3-9.5-4-36.5-0.6-15.4-1.3-28.3-1.6-28.8-0.2-0.4-0.7-0.7-1.1-0.6-0.5 0-3.9 1-7.6 2.2z"/>
	</g>
</svg>